<svg xmlns:xlink="http://www.w3.org/1999/xlink" xmlns="http://www.w3.org/2000/svg" width="75" height="75" viewBox="0 0 75 75" fill="none">
<path d="M13.3301 75H68.2617V8.78906H63.8672V0H13.3301C9.69543 0 6.73828 2.95715 6.73828 6.5918V68.4082C6.73828 72.0428 9.69543 75 13.3301 75ZM11.1328 68.4082V12.8059C11.8206 13.0497 12.5599 13.1836 13.3301 13.1836H15.5273V70.6055H13.3301C12.1187 70.6055 11.1328 69.6196 11.1328 68.4082ZM63.8672 70.6055H19.9219V13.1836H41.8945V37.0646L50.6836 31.2052L59.4727 37.0646V13.1836H63.8672V70.6055ZM46.2891 13.1836H55.0781V28.8534L50.6836 25.9237L46.2891 28.8534V13.1836ZM13.3301 4.39453H59.4727V8.78906C56.8382 8.78906 15.1508 8.78906 13.3301 8.78906C12.1187 8.78906 11.1328 7.80315 11.1328 6.5918C11.1328 5.38044 12.1187 4.39453 13.3301 4.39453Z" fill="white"/>
</svg>