<svg xmlns:xlink="http://www.w3.org/1999/xlink" xmlns="http://www.w3.org/2000/svg" width="75" height="75" viewBox="0 0 75 75" fill="none">
<g clip-path="url(#clip0_372_3021)">
<path d="M67.4918 64.3305C80.5463 49.2732 76.0041 25.8649 58.2495 16.7334C53.122 6.80405 42.7582 0 30.8345 0C13.8329 0 0.00129845 13.8325 0.00129845 30.835C0.00129845 38.3202 2.65091 45.3995 7.50672 51.0004L0.655058 57.7622C-0.733614 59.1328 0.228349 61.5139 2.18802 61.5234L18.7343 61.6022C24.4362 69.8993 33.8556 75 44.164 75C44.1851 75 72.7938 74.8537 72.8106 74.8535C74.7637 74.8441 75.7366 72.4673 74.3434 71.0922L67.4918 64.3305ZM12.1229 49.5142C7.13992 44.522 4.39554 37.8882 4.39554 30.835C4.39554 16.2557 16.2561 4.39453 30.8345 4.39453C45.4129 4.39453 57.2735 16.2557 57.2735 30.835C57.2735 44.8056 46.2179 57.388 29.9771 57.2612L7.52723 57.1542L12.1112 52.6305C12.9781 51.7748 12.9832 50.3763 12.1229 49.5142ZM44.164 70.6055C36.4539 70.6055 29.2875 67.3112 24.3058 61.6288C32.6707 61.6838 30.4501 61.6699 30.8345 61.6699C50.6688 61.6699 65.4789 43.0651 60.8182 23.6401C72.9715 33.5679 73.9668 51.7327 62.8756 62.8443C62.0152 63.7063 62.0204 65.105 62.8873 65.9606L67.4713 70.4843C67.4538 70.4843 44.181 70.6055 44.164 70.6055Z" fill="white"/>
<path d="M17.7254 24.3164H44.0911C45.3046 24.3164 46.2882 23.3326 46.2882 22.1191C46.2882 20.9057 45.3046 19.9219 44.0911 19.9219H17.7254C16.5119 19.9219 15.5282 20.9057 15.5282 22.1191C15.5282 23.3326 16.512 24.3164 17.7254 24.3164Z" fill="white"/>
<path d="M17.7254 33.1055H44.0911C45.3046 33.1055 46.2883 32.1217 46.2883 30.9082C46.2883 29.6947 45.3046 28.7109 44.0911 28.7109H17.7254C16.5119 28.7109 15.5283 29.6947 15.5283 30.9082C15.5283 32.1217 16.512 33.1055 17.7254 33.1055Z" fill="white"/>
<path d="M17.7254 41.8945H44.0911C45.3046 41.8945 46.2883 40.9107 46.2883 39.6973C46.2883 38.4838 45.3046 37.5 44.0911 37.5H17.7254C16.5119 37.5 15.5283 38.4838 15.5283 39.6973C15.5283 40.9107 16.512 41.8945 17.7254 41.8945Z" fill="white"/>
</g>
<defs>
<clipPath id="clip0_372_3021">
<rect width="75" height="75" fill="white"/>
</clipPath>
</defs>
</svg>