<svg xmlns:xlink="http://www.w3.org/1999/xlink" xmlns="http://www.w3.org/2000/svg" width="81" height="81" viewBox="0 0 81 81" fill="none">
<path d="M3 78H0.75C0.75 79.2426 1.75736 80.25 3 80.25L3 78ZM53.1787 78V80.25C54.4214 80.25 55.4287 79.2426 55.4287 78H53.1787ZM40.1761 25.973C40.1761 33.0174 34.6887 38.5878 28.0894 38.5878V43.0878C37.326 43.0878 44.6761 35.3478 44.6761 25.973H40.1761ZM28.0894 38.5878C21.49 38.5878 16.0026 33.0174 16.0026 25.973H11.5026C11.5026 35.3478 18.8527 43.0878 28.0894 43.0878V38.5878ZM16.0026 25.973C16.0026 18.9286 21.49 13.3581 28.0894 13.3581V8.85811C18.8527 8.85811 11.5026 16.5981 11.5026 25.973H16.0026ZM28.0894 13.3581C34.6887 13.3581 40.1761 18.9286 40.1761 25.973H44.6761C44.6761 16.5981 37.326 8.85811 28.0894 8.85811V13.3581ZM5.25 78C5.25 64.7984 15.5515 54.2365 28.0894 54.2365V49.7365C12.9142 49.7365 0.75 62.4679 0.75 78H5.25ZM28.0894 54.2365C40.6272 54.2365 50.9287 64.7984 50.9287 78H55.4287C55.4287 62.4679 43.2645 49.7365 28.0894 49.7365V54.2365ZM3 80.25H53.1787V75.75H3V80.25Z" fill="white"/>
<path d="M71.8977 3C75.7113 8.68649 78 16.3135 78 24.8054C78 33.2973 75.7113 40.927 71.8977 46.6135" stroke="white" stroke-width="4.5" stroke-linecap="round" stroke-linejoin="round"/>
<path d="M57.7404 11.2718C60.1073 14.8015 61.528 19.5366 61.528 24.8069C61.528 30.0772 60.1073 34.8096 57.7404 38.3393" stroke="white" stroke-width="4.5" stroke-linecap="round" stroke-linejoin="round"/>
</svg>