<svg xmlns:xlink="http://www.w3.org/1999/xlink" xmlns="http://www.w3.org/2000/svg" width="30" height="30" viewBox="0 0 30 30" fill="none">
<path fill-rule="evenodd" clip-rule="evenodd" d="M15.8927 4.30104L18.7877 10.1248C18.9327 10.4185 19.2127 10.6235 19.5377 10.671L26.0189 11.6073C26.2814 11.6423 26.5177 11.7798 26.6789 11.9898C26.9814 12.3835 26.9352 12.941 26.5727 13.2798L21.8752 17.8223C21.6364 18.0473 21.5302 18.3773 21.5927 18.6985L22.7177 25.1085C22.7964 25.6398 22.4339 26.1373 21.9027 26.2235C21.6827 26.2573 21.4577 26.2223 21.2577 26.1235L15.4852 23.0973C15.1952 22.9398 14.8477 22.9398 14.5577 23.0973L8.74266 26.1398C8.25641 26.3873 7.66141 26.2035 7.39641 25.7273C7.29516 25.5348 7.26016 25.316 7.29516 25.1023L8.42016 18.6923C8.47641 18.3723 8.37016 18.0435 8.13766 17.8173L3.41516 13.276C3.03016 12.8935 3.02766 12.271 3.41141 11.886C3.41266 11.8848 3.41391 11.8823 3.41516 11.881C3.57391 11.7373 3.76891 11.641 3.98016 11.6035L10.4627 10.6673C10.7864 10.616 11.0652 10.4135 11.2127 10.1198L14.1052 4.30104C14.2214 4.06479 14.4277 3.88354 14.6777 3.80104C14.9289 3.71729 15.2039 3.73729 15.4402 3.85604C15.6339 3.95229 15.7927 4.10854 15.8927 4.30104Z" stroke="#47C171" stroke-width="2" stroke-linecap="round" stroke-linejoin="round"/>
</svg>