<svg width="41" height="40" viewBox="0 0 41 40" fill="none" xmlns="http://www.w3.org/2000/svg">
<circle cx="20.5" cy="20" r="19.5" stroke="#FFD41D"/>
<path d="M20.5 10C23.217 10 23.556 10.01 24.622 10.06C25.687 10.11 26.412 10.277 27.05 10.525C27.71 10.779 28.266 11.123 28.822 11.678C29.3305 12.1779 29.724 12.7826 29.975 13.45C30.222 14.087 30.39 14.813 30.44 15.878C30.487 16.944 30.5 17.283 30.5 20C30.5 22.717 30.49 23.056 30.44 24.122C30.39 25.187 30.222 25.912 29.975 26.55C29.7247 27.2178 29.3311 27.8226 28.822 28.322C28.322 28.8303 27.7173 29.2238 27.05 29.475C26.413 29.722 25.687 29.89 24.622 29.94C23.556 29.987 23.217 30 20.5 30C17.783 30 17.444 29.99 16.378 29.94C15.313 29.89 14.588 29.722 13.95 29.475C13.2823 29.2245 12.6775 28.8309 12.178 28.322C11.6694 27.8222 11.2759 27.2175 11.025 26.55C10.777 25.913 10.61 25.187 10.56 24.122C10.513 23.056 10.5 22.717 10.5 20C10.5 17.283 10.51 16.944 10.56 15.878C10.61 14.812 10.777 14.088 11.025 13.45C11.2752 12.7822 11.6688 12.1773 12.178 11.678C12.6777 11.1692 13.2824 10.7757 13.95 10.525C14.588 10.277 15.312 10.11 16.378 10.06C17.444 10.013 17.783 10 20.5 10ZM20.5 15C19.1739 15 17.9021 15.5268 16.9645 16.4645C16.0268 17.4021 15.5 18.6739 15.5 20C15.5 21.3261 16.0268 22.5979 16.9645 23.5355C17.9021 24.4732 19.1739 25 20.5 25C21.8261 25 23.0979 24.4732 24.0355 23.5355C24.9732 22.5979 25.5 21.3261 25.5 20C25.5 18.6739 24.9732 17.4021 24.0355 16.4645C23.0979 15.5268 21.8261 15 20.5 15ZM27 14.75C27 14.4185 26.8683 14.1005 26.6339 13.8661C26.3995 13.6317 26.0815 13.5 25.75 13.5C25.4185 13.5 25.1005 13.6317 24.8661 13.8661C24.6317 14.1005 24.5 14.4185 24.5 14.75C24.5 15.0815 24.6317 15.3995 24.8661 15.6339C25.1005 15.8683 25.4185 16 25.75 16C26.0815 16 26.3995 15.8683 26.6339 15.6339C26.8683 15.3995 27 15.0815 27 14.75ZM20.5 17C21.2956 17 22.0587 17.3161 22.6213 17.8787C23.1839 18.4413 23.5 19.2044 23.5 20C23.5 20.7956 23.1839 21.5587 22.6213 22.1213C22.0587 22.6839 21.2956 23 20.5 23C19.7044 23 18.9413 22.6839 18.3787 22.1213C17.8161 21.5587 17.5 20.7956 17.5 20C17.5 19.2044 17.8161 18.4413 18.3787 17.8787C18.9413 17.3161 19.7044 17 20.5 17Z" fill="#292929"/>
</svg>
