<svg width="41" height="40" viewBox="0 0 41 40" fill="none" xmlns="http://www.w3.org/2000/svg">
<circle cx="20.5" cy="20" r="19.5" stroke="#FFD41D"/>
<path d="M20.9559 10C15.7424 10 11.5023 14.3498 11.5 19.6967C11.4994 21.529 11.9992 23.3134 12.9452 24.8574L13.1699 25.2243L12.2149 28.8028L15.7922 27.84L16.1375 28.0501C17.5886 28.9338 19.2521 29.4012 20.9481 29.4018H20.9519C26.1614 29.4018 30.4014 25.0517 30.4038 19.7045C30.4046 17.1131 29.4224 14.6768 27.638 12.8439C25.8535 11.0111 23.4803 10.0009 20.9559 10ZM26.5154 23.866C26.2785 24.5467 25.1435 25.1683 24.5976 25.2522C24.1079 25.3272 23.4887 25.3585 22.8079 25.1368C22.3951 25.0023 21.866 24.8229 21.1879 24.5226C18.3377 23.2599 16.4761 20.3153 16.3341 20.1207C16.192 19.9261 15.1738 18.5399 15.1738 17.1048C15.1738 15.67 15.9079 14.9646 16.1682 14.673C16.4289 14.3811 16.7368 14.3082 16.9261 14.3082C17.1154 14.3082 17.305 14.31 17.4706 14.3183C17.6451 14.3272 17.8793 14.2502 18.1098 14.8188C18.3467 15.4025 18.9149 16.8373 18.986 16.9831C19.057 17.1292 19.1042 17.2994 19.0097 17.494C18.9149 17.6886 18.6001 18.1084 18.2994 18.4911C18.1733 18.6515 18.0089 18.7943 18.1748 19.0862C18.3403 19.3778 18.9109 20.3326 19.7554 21.1056C20.8408 22.0988 21.7564 22.4065 22.0405 22.5526C22.3244 22.6984 22.4902 22.674 22.656 22.4797C22.8216 22.2851 23.3663 21.6284 23.5556 21.3365C23.7449 21.0446 23.9346 21.0934 24.1949 21.1907C24.4555 21.2877 25.8524 21.9932 26.1365 22.139C26.4206 22.2851 26.6099 22.358 26.6809 22.4797C26.7523 22.6014 26.7523 23.1849 26.5154 23.866Z" fill="#292929"/>
</svg>
