<?xml version="1.0" standalone="no"?>
<!DOCTYPE svg PUBLIC "-//W3C//DTD SVG 20010904//EN"
 "http://www.w3.org/TR/2001/REC-SVG-20010904/DTD/svg10.dtd">
<svg version="1.0" xmlns="http://www.w3.org/2000/svg"
 width="191.000000pt" height="128.000000pt" viewBox="0 0 191.000000 128.000000"
 preserveAspectRatio="xMidYMid meet">

<g transform="translate(0.000000,128.000000) scale(0.100000,-0.100000)"
fill="#000000" stroke="none">
<path d="M373 940 c-169 -35 -269 -226 -234 -448 29 -191 133 -295 296 -296
124 0 218 61 272 178 26 57 28 69 28 196 0 128 -2 138 -29 198 -61 133 -194
201 -333 172z m177 -70 c48 -25 85 -66 112 -125 20 -44 23 -66 23 -175 0 -109
-3 -131 -23 -175 -47 -101 -117 -148 -223 -148 -149 0 -235 93 -254 273 -14
136 33 278 110 332 69 49 179 56 255 18z"/>
<path d="M391 764 c-42 -30 -61 -89 -61 -194 0 -80 4 -103 23 -140 53 -106
158 -82 187 41 17 72 8 194 -18 245 -30 60 -85 80 -131 48z m71 -46 c22 -17
38 -80 38 -148 0 -137 -59 -206 -103 -120 -14 28 -17 54 -15 130 4 126 32 175
80 138z"/>
<path d="M1083 940 c-94 -20 -186 -97 -199 -167 -10 -53 2 -122 26 -154 l21
-30 -29 -33 c-92 -105 -44 -261 103 -328 72 -33 218 -33 290 0 146 67 193 214
104 324 l-30 38 22 30 c33 43 38 134 11 186 -11 21 -33 51 -49 66 -59 57 -179
87 -270 68z m182 -70 c45 -19 92 -68 101 -106 12 -48 -3 -105 -37 -140 -18
-19 -40 -34 -48 -34 -9 -1 -2 -7 14 -14 17 -7 45 -30 63 -50 28 -33 32 -43 32
-96 0 -52 -4 -64 -32 -95 -54 -63 -99 -80 -208 -80 -109 0 -154 17 -208 80
-28 31 -32 43 -32 92 0 68 27 115 80 141 l36 17 -30 16 c-37 20 -66 73 -66
122 0 136 179 215 335 147z"/>
<path d="M1110 777 c-35 -18 -53 -58 -41 -91 33 -84 161 -65 161 24 0 60 -65
96 -120 67z m65 -67 c0 -18 -6 -26 -23 -28 -24 -4 -38 18 -28 44 3 9 15 14 28
12 17 -2 23 -10 23 -28z"/>
<path d="M1100 513 c-39 -20 -56 -57 -46 -96 19 -78 172 -79 192 -2 20 80 -67
138 -146 98z m84 -46 c10 -7 16 -22 14 -33 -3 -15 -12 -19 -48 -19 -36 0 -45
4 -48 19 -4 21 22 46 48 46 9 0 24 -6 34 -13z"/>
<path d="M1594 417 c-91 -83 -23 -230 99 -214 69 9 123 83 109 152 -2 15 -20
42 -39 61 -29 30 -40 34 -83 34 -43 0 -56 -5 -86 -33z m134 -33 c16 -11 22
-25 22 -54 0 -73 -75 -106 -125 -55 -30 30 -32 64 -4 99 24 30 72 35 107 10z"/>
</g>
</svg>
