<svg width="32" height="33" viewBox="0 0 32 33" fill="none" xmlns="http://www.w3.org/2000/svg">
<circle cx="16" cy="16.5" r="16" fill="#292929"/>
<path d="M17.3337 11.5666C17.3337 11.3457 17.1546 11.1666 16.9337 11.1666H15.067C14.8461 11.1666 14.667 11.3457 14.667 11.5666V14.7666C14.667 14.9875 14.4879 15.1666 14.267 15.1666H11.067C10.8461 15.1666 10.667 15.3457 10.667 15.5666V17.4333C10.667 17.6542 10.8461 17.8333 11.067 17.8333H14.267C14.4879 17.8333 14.667 18.0123 14.667 18.2333V21.4333C14.667 21.6542 14.8461 21.8333 15.067 21.8333H16.9337C17.1546 21.8333 17.3337 21.6542 17.3337 21.4333V18.2333C17.3337 18.0123 17.5127 17.8333 17.7337 17.8333H20.9337C21.1546 17.8333 21.3337 17.6542 21.3337 17.4333V15.5666C21.3337 15.3457 21.1546 15.1666 20.9337 15.1666H17.7337C17.5127 15.1666 17.3337 14.9875 17.3337 14.7666V11.5666Z" fill="#FFD41D"/>
</svg>
