<svg width="36" height="36" xmlns="http://www.w3.org/2000/svg">

 <g>
  <title>background</title>
  <rect fill="none" id="canvas_background" height="402" width="582" y="-1" x="-1"/>
 </g>
 <g>
  <title>Layer 1</title>
  <path stroke="null" id="svg_2" fill="#ffd41d" d="m23.09354,17.994047l11.051757,-10.971507c1.393575,-1.383353 1.393575,-3.672913 0,-5.056266c-1.393575,-1.383637 -3.699963,-1.383637 -5.093538,0l-11.051757,10.971223l-11.051757,-10.971223c-1.393575,-1.383637 -3.699963,-1.383637 -5.093538,0c-1.393575,1.383353 -1.393575,3.672913 0,5.056266l11.051757,10.971507l-11.051757,10.971507c-1.393575,1.383353 -1.393575,3.673197 0,5.05655c0.720854,0.715292 1.633668,1.049322 2.546769,1.049322c0.912814,0 1.825915,-0.33403 2.546769,-1.049322l11.051757,-10.971507l11.051757,10.971507c0.720854,0.715292 1.633955,1.049322 2.546769,1.049322c0.913101,0 1.825915,-0.33403 2.546769,-1.049322c1.393575,-1.383353 1.393575,-3.673197 0,-5.05655l-11.051757,-10.971507z"/>
 </g>
</svg>