<svg width="215" height="185" viewBox="0 0 215 185" fill="none" xmlns="http://www.w3.org/2000/svg">
<path d="M128.017 180.476H86.9619L88.4701 132.885H126.509L128.017 180.476Z" fill="#382040"/>
<path d="M209.122 148.134H5.85686C3.00813 148.134 0.662109 145.788 0.662109 142.939V5.19475C0.662109 2.34601 3.00813 0 5.85686 0H209.122C211.971 0 214.317 2.34601 214.317 5.19475V142.939C214.317 145.788 211.971 148.134 209.122 148.134Z" fill="#382040"/>
<path d="M204.765 8.88135H10.0459V133.89H204.765V8.88135Z" fill="#1E0327"/>
<path d="M202.587 11.8976H12.3926V130.874H202.587V11.8976Z" fill="#EBEBEB"/>
<path d="M202.587 11.8976H12.3926V94.0081H202.587V11.8976Z" fill="#1EB1FA"/>
<path d="M86.6272 40.0498C86.6272 44.5743 82.9406 48.2608 78.4161 48.2608C73.8917 48.2608 70.2051 44.5743 70.2051 40.0498C70.2051 35.5253 73.8917 31.8387 78.4161 31.8387C83.1081 31.8387 86.6272 35.5253 86.6272 40.0498Z" fill="#FFCC33"/>
<path d="M186.668 24.1305C186.5 24.1305 186.333 24.2981 186.333 24.2981C186.333 24.2981 186.5 24.2981 186.668 24.1305C187.338 23.7953 188.009 23.1251 187.171 22.6223C186.668 22.2872 185.998 22.4548 185.327 22.9575C185.16 23.1251 185.16 23.125 184.992 23.2926C185.16 23.125 185.16 23.1251 185.327 22.9575C185.663 22.6223 185.83 22.2872 185.998 22.1196C186.5 21.4493 186.5 20.2763 185.495 19.9412C184.657 19.606 183.317 19.9412 182.646 20.779C181.976 21.7845 181.976 23.125 181.976 23.125C181.976 22.6223 181.976 21.6169 180.803 21.6169C179.63 21.7845 179.965 23.1251 179.965 23.7953C179.965 23.4602 179.965 21.7845 178.625 21.1142C177.954 20.779 177.284 20.779 176.614 20.9466C175.776 21.2818 175.441 21.952 175.776 22.6223C175.943 23.4602 176.949 24.1305 176.949 24.1305C176.949 24.1305 175.943 23.6278 175.441 23.4602C174.435 23.2926 172.76 23.125 172.089 24.1305C171.419 24.9683 172.424 26.3089 174.268 26.3089C175.608 26.3089 186.5 26.3089 187.673 26.3089C188.679 26.3089 190.187 25.8062 190.019 24.6332C189.852 23.7953 187.841 23.7953 186.668 24.1305Z" fill="#E3EDF4"/>
<path d="M92.6596 23.2925C92.492 23.2925 92.3245 23.4601 92.3245 23.4601C92.3245 23.2925 92.492 23.2925 92.6596 23.2925C93.3299 22.9574 94.0002 22.2871 93.1623 21.7844C92.6596 21.4492 91.9893 21.6168 91.319 22.1195C91.1515 22.2871 91.1515 22.2871 90.9839 22.4547C91.1515 22.2871 91.1515 22.2871 91.319 22.1195C91.6542 21.7844 91.8218 21.4492 91.9893 21.2817C92.4921 20.6114 92.492 19.4384 91.4866 19.1032C90.6488 18.7681 89.3082 19.1032 88.6379 19.9411C87.9676 20.9465 87.9676 22.2871 87.9676 22.2871C87.9676 21.7844 87.9676 20.7789 86.7946 20.7789C85.6216 20.9465 85.9567 22.2871 85.9567 22.9574C85.9567 22.6222 85.9567 20.9465 84.7837 20.2762C84.1134 19.9411 83.4431 19.9411 82.7729 20.1087C81.935 20.4438 81.5998 21.1141 81.935 21.7844C82.1026 22.6222 83.108 23.2925 83.108 23.2925C83.108 23.2925 82.1026 22.7898 81.5998 22.6222C80.5944 22.4547 78.9187 22.2871 78.2484 23.2925C77.5781 24.1304 78.5835 25.471 80.4268 25.471C81.7674 25.471 92.6596 25.471 93.8326 25.471C94.8381 25.471 96.3462 24.9683 96.1786 23.7953C95.8435 22.7898 93.8326 22.7898 92.6596 23.2925Z" fill="#E3EDF4"/>
<path d="M48.253 41.558C48.0854 41.558 47.9178 41.7256 47.9178 41.7256C48.0854 41.7256 48.253 41.7256 48.253 41.558C48.9233 41.2229 49.5936 40.5526 48.7557 40.0499C48.253 39.7147 47.5827 39.8823 46.9124 40.385C46.7448 40.5526 46.7448 40.5526 46.5772 40.7202C46.7448 40.5526 46.7448 40.5526 46.9124 40.385C47.2475 40.0499 47.4151 39.7147 47.5827 39.5472C48.0854 38.8769 48.0854 37.7039 47.08 37.3687C46.2421 37.0336 44.9015 37.3687 44.2312 38.2066C43.561 39.212 43.5609 40.5526 43.5609 40.5526C43.5609 40.0499 43.5609 39.0444 42.3879 39.0444C41.2149 39.212 41.5501 40.5526 41.5501 41.2229C41.5501 40.8877 41.5501 39.212 40.2095 38.5417C39.5392 38.2066 38.8689 38.039 38.1986 38.3742C37.3608 38.7093 37.0256 39.3796 37.3608 40.0499C37.5283 40.8877 38.5338 41.558 38.5338 41.558C38.5338 41.558 37.5283 41.0553 37.0256 40.8877C36.0202 40.7202 34.3445 40.5526 33.6742 41.558C33.0039 42.3959 34.0093 43.7365 35.8526 43.7365C37.1932 43.7365 48.0854 43.7365 49.2584 43.7365C50.2638 43.7365 51.772 43.2338 51.6044 42.0608C51.4368 41.2229 49.5935 41.2229 48.253 41.558Z" fill="#E3EDF4"/>
<path d="M34.3439 24.6332C34.1763 24.6332 34.1763 24.8007 34.0088 24.8007C34.1763 24.6332 34.3439 24.6332 34.3439 24.6332C34.8466 24.298 35.1818 23.9629 34.679 23.4602C34.3439 23.2926 33.8412 23.2926 33.3385 23.6277C33.3385 23.7953 33.1709 23.7953 33.1709 23.7953C33.1709 23.6277 33.3385 23.6277 33.3385 23.6277C33.506 23.4602 33.6736 23.125 33.8412 22.9574C34.1763 22.4547 34.1763 21.7844 33.506 21.4493C32.8358 21.1141 31.9979 21.4493 31.4952 22.1196C30.9925 22.7899 30.9925 23.7953 30.9925 23.7953C30.9925 23.4602 30.9925 22.6223 30.1546 22.7899C29.3167 22.7899 29.4843 23.7953 29.4843 24.298C29.4843 24.1304 29.4843 22.7899 28.6464 22.2872C28.1437 21.952 27.641 21.952 27.3059 22.1196C26.6356 22.2872 26.468 22.7899 26.6356 23.2926C26.8031 23.7953 27.4734 24.298 27.4734 24.298C27.4734 24.298 26.8031 23.9629 26.468 23.7953C25.7977 23.6277 24.4571 23.6277 24.122 24.298C23.6193 24.9683 24.2896 25.8062 25.6301 25.8062C26.468 25.8062 34.1763 25.8062 35.1818 25.8062C35.8521 25.8062 37.0251 25.471 36.8575 24.6332C36.6899 24.298 35.3493 24.298 34.3439 24.6332Z" fill="#E3EDF4"/>
<path d="M22.2791 47.2554C22.2791 47.2554 22.1115 47.2554 22.1115 47.423C22.1115 47.423 22.1115 47.423 22.2791 47.2554C22.6143 47.0878 22.9494 46.7527 22.6143 46.4176C22.2791 46.25 21.944 46.25 21.6088 46.5851L21.4412 46.7527L21.6088 46.5851C21.7764 46.4175 21.944 46.25 21.944 46.0824C22.1115 45.7473 22.2791 45.2445 21.6088 44.9094C21.1061 44.7418 20.4358 44.9094 20.1007 45.4121C19.7655 45.9148 19.7655 46.5851 19.7655 46.5851C19.7655 46.25 19.7655 45.7473 19.0952 45.7473C18.4249 45.7473 18.5925 46.4176 18.5925 46.9203C18.5925 46.7527 18.5925 45.9148 17.9222 45.4121C17.5871 45.2445 17.2519 45.2445 16.9168 45.2445C16.4141 45.4121 16.4141 45.7473 16.4141 46.0824C16.5816 46.5851 17.0844 46.9203 17.0844 46.9203C17.0844 46.9203 16.5816 46.5851 16.2465 46.5851C15.7438 46.4175 14.7383 46.4176 14.4032 46.9203C14.0681 47.423 14.5708 48.0933 15.5762 48.0933C16.2465 48.0933 21.944 48.0933 22.6143 48.0933C23.117 48.0933 23.9548 47.7581 23.7873 47.2554C23.7873 47.0878 22.7818 47.0878 22.2791 47.2554Z" fill="#E3EDF4"/>
<path d="M193.203 42.0607C193.035 42.0607 193.035 42.2283 192.867 42.2283C193.035 42.2283 193.203 42.0607 193.203 42.0607C193.705 41.7255 194.208 41.2228 193.538 40.8877C193.203 40.7201 192.7 40.7201 192.197 41.0553C192.197 41.2228 192.03 41.2228 192.03 41.2228C192.03 41.0553 192.197 41.0553 192.197 41.0553C192.365 40.8877 192.532 40.5525 192.7 40.385C193.035 39.8822 193.035 39.0444 192.365 38.7092C191.694 38.3741 190.857 38.7092 190.354 39.3795C189.851 40.0498 189.851 41.0553 189.851 41.0553C189.851 40.7201 189.851 39.8822 189.013 40.0498C188.175 40.0498 188.343 41.0553 188.343 41.558C188.343 41.3904 188.343 40.0498 187.505 39.5471C187.002 39.212 186.5 39.212 186.165 39.3795C185.494 39.5471 185.327 40.2174 185.494 40.5525C185.662 41.0553 186.332 41.7255 186.332 41.7255C186.332 41.7255 185.662 41.3904 185.159 41.2228C184.489 41.0553 183.148 41.0553 182.646 41.7255C182.143 42.3958 182.813 43.2337 184.321 43.2337C185.159 43.2337 193.035 43.2337 193.873 43.2337C194.543 43.2337 195.716 42.8985 195.549 42.0607C195.549 41.7255 194.04 41.7255 193.203 42.0607Z" fill="#E3EDF4"/>
<path d="M157.677 27.4819C157.51 27.4819 157.51 27.6495 157.342 27.6495C157.51 27.6495 157.51 27.4819 157.677 27.4819C158.18 27.1467 158.683 26.644 158.012 26.3089C157.677 26.1413 157.174 26.1413 156.672 26.4765C156.672 26.644 156.504 26.644 156.504 26.644C156.504 26.4765 156.672 26.4765 156.672 26.4765C156.839 26.3089 157.007 25.9737 157.174 25.8062C157.51 25.3034 157.51 24.4656 156.839 24.1304C156.169 23.7953 155.331 24.1304 154.828 24.8007C154.326 25.471 154.326 26.4765 154.326 26.4765C154.326 26.1413 154.326 25.3035 153.488 25.471C152.65 25.471 152.818 26.4765 152.818 26.9792C152.818 26.8116 152.818 25.471 151.98 24.9683C151.477 24.6332 150.974 24.6332 150.639 24.8007C149.969 24.9683 149.801 25.6386 149.969 25.9737C150.136 26.4765 150.807 27.1467 150.807 27.1467C150.807 27.1467 150.136 26.8116 149.634 26.644C148.963 26.4765 147.623 26.4765 147.12 27.1467C146.617 27.817 147.288 28.6549 148.796 28.6549C149.634 28.6549 157.51 28.6549 158.347 28.6549C159.018 28.6549 160.191 28.3198 160.023 27.4819C159.856 27.3143 158.515 27.1467 157.677 27.4819Z" fill="#E3EDF4"/>
<path d="M81.2641 57.8125C81.0965 57.8125 81.0965 57.98 80.929 57.98C80.929 57.98 81.0965 57.98 81.2641 57.8125C81.7668 57.4773 82.2695 56.9746 81.5992 56.6394C81.2641 56.4719 80.7614 56.4719 80.2587 56.807C80.2587 56.9746 80.0911 56.9746 80.0911 56.9746C80.0911 56.807 80.2587 56.807 80.2587 56.807C80.4262 56.6395 80.5938 56.3043 80.7614 56.1367C81.0965 55.634 81.0965 54.7962 80.4262 54.461C79.756 54.1259 78.9181 54.461 78.4154 55.1313C77.9127 55.8016 77.9127 56.807 77.9127 56.807C77.9127 56.4719 77.9127 55.634 77.0748 55.8016C76.2369 55.8016 76.4045 56.807 76.4045 57.3097C76.4045 57.1422 76.4045 55.8016 75.5666 55.2989C75.0639 54.9637 74.5612 54.9637 74.2261 55.1313C73.5558 55.2989 73.3882 55.9692 73.5558 56.3043C73.7234 56.807 74.3936 57.4773 74.3936 57.4773C74.3936 57.4773 73.7233 57.1422 73.2206 56.9746C72.5503 56.807 71.2098 56.807 70.707 57.4773C70.2043 58.1476 70.8746 58.9855 72.3828 58.9855C73.2206 58.9855 81.0965 58.9855 81.9344 58.9855C82.6047 58.9855 83.7777 58.6503 83.6101 57.8125C83.4426 57.6449 82.102 57.4773 81.2641 57.8125Z" fill="#E3EDF4"/>
<path d="M123.828 20.4438L125.169 23.9628L127.18 20.7789C127.515 20.7789 127.85 20.9465 128.185 20.9465L125.504 24.8007C125.169 24.8007 125.001 24.8007 124.666 24.6331L122.99 20.4438C123.158 20.6114 123.493 20.4438 123.828 20.4438Z" fill="#EBEBEB"/>
<path d="M120.309 77.5859L118.968 74.0669L116.958 77.2508C116.622 77.2508 116.287 77.0832 115.952 77.0832L118.633 73.2291C118.968 73.2291 119.136 73.2291 119.471 73.3966L121.147 77.5859C120.979 77.4184 120.644 77.5859 120.309 77.5859Z" fill="#EBEBEB"/>
<path d="M120.309 20.4437L118.968 23.9627L116.958 20.7789C116.622 20.7789 116.287 20.9464 115.952 20.9464L118.633 24.8006C118.968 24.8006 119.136 24.8006 119.471 24.633L121.147 20.4437C120.979 20.6113 120.644 20.4437 120.309 20.4437Z" fill="#EBEBEB"/>
<path d="M123.828 77.5859L125.169 74.0669L127.18 77.2508C127.515 77.2508 127.85 77.0832 128.185 77.0832L125.504 73.2291C125.169 73.2291 125.001 73.2291 124.666 73.3966L122.99 77.5859C123.158 77.4184 123.493 77.5859 123.828 77.5859Z" fill="#EBEBEB"/>
<path d="M112.433 22.1196L112.098 25.9737L109.249 23.6277C108.914 23.7953 108.746 23.9629 108.411 23.9629L112.098 26.9792C112.265 26.8116 112.6 26.8116 112.936 26.644L113.271 22.1196C112.936 22.1196 112.768 22.1196 112.433 22.1196Z" fill="#EBEBEB"/>
<path d="M132.709 75.5752L133.044 71.721L135.893 74.067C136.228 73.8995 136.396 73.7319 136.731 73.7319L133.044 70.7156C132.877 70.8831 132.541 70.8831 132.206 71.0507L131.871 75.5752C132.039 75.5752 132.374 75.5752 132.709 75.5752Z" fill="#EBEBEB"/>
<path d="M95.8441 37.5362L98.3577 40.3849L94.6711 40.8876C94.5035 41.2228 94.5035 41.5579 94.3359 41.7255L99.028 41.0552C99.028 40.7201 99.1955 40.5525 99.3631 40.2174L96.3468 36.8659C96.1792 37.2011 96.0117 37.3686 95.8441 37.5362Z" fill="#EBEBEB"/>
<path d="M148.294 60.4936L145.781 57.6449L149.467 57.1422C149.635 56.807 149.635 56.4719 149.803 56.3043L145.111 56.9746C145.111 57.3098 144.943 57.4773 144.775 57.8125L147.792 61.1639C147.959 60.8288 148.127 60.6612 148.294 60.4936Z" fill="#EBEBEB"/>
<path d="M94.5035 56.9744L98.1901 57.4771L95.6765 60.1583C95.8441 60.4935 95.8441 60.8286 96.0117 60.9962L99.1955 57.4771C99.028 57.3096 99.028 56.9744 98.8604 56.6393L94.3359 55.969C94.6711 56.4717 94.5035 56.6393 94.5035 56.9744Z" fill="#EBEBEB"/>
<path d="M149.634 41.0551L145.948 40.5524L148.461 37.8712C148.294 37.5361 148.294 37.201 148.126 37.0334L144.942 40.5524C145.11 40.72 145.11 41.0551 145.278 41.3903L149.802 42.0606C149.634 41.7254 149.634 41.3903 149.634 41.0551Z" fill="#EBEBEB"/>
<path d="M131.034 21.7843L131.369 25.6385L134.218 23.1249C134.553 23.2925 134.72 23.4601 135.055 23.4601L131.369 26.4764C131.201 26.3088 130.866 26.3088 130.531 26.1412L130.028 21.6168C130.531 21.7843 130.866 21.7843 131.034 21.7843Z" fill="#EBEBEB"/>
<path d="M112.098 75.7426L111.763 71.8885L108.914 74.402C108.579 74.2345 108.411 74.0669 108.076 74.0669L111.763 71.0506C111.93 71.2182 112.265 71.2182 112.601 71.3857L113.103 75.9102C112.601 75.7426 112.433 75.7426 112.098 75.7426Z" fill="#EBEBEB"/>
<path d="M100.201 31.1683L101.709 34.6873L98.0223 34.017C97.8547 34.3522 97.6871 34.5197 97.5195 34.8549L102.212 35.6927C102.379 35.5252 102.547 35.19 102.714 35.0224L100.871 30.8331C100.871 31.0007 100.536 31.1683 100.201 31.1683Z" fill="#EBEBEB"/>
<path d="M103.05 27.6492L106.569 29.1574L105.899 25.4708C106.234 25.3032 106.401 25.1357 106.737 24.9681L107.574 29.6601C107.407 29.8277 107.072 29.9953 106.904 30.1628L102.715 28.3195C102.715 28.152 102.882 27.8168 103.05 27.6492Z" fill="#EBEBEB"/>
<path d="M142.094 69.5424L138.575 68.0342L139.245 71.7208C138.91 71.8884 138.742 72.056 138.407 72.2236L137.569 67.5315C137.737 67.364 138.072 67.1964 138.24 67.0288L142.429 68.8721C142.429 69.0397 142.261 69.3748 142.094 69.5424Z" fill="#EBEBEB"/>
<path d="M144.607 66.5262L143.099 63.0071L146.786 63.6774C146.953 63.3423 147.121 63.1747 147.289 62.8396L142.596 62.0017C142.429 62.1693 142.261 62.5044 142.094 62.672L143.937 66.8613C144.105 66.8613 144.44 66.6937 144.607 66.5262Z" fill="#EBEBEB"/>
<path d="M93.498 50.7745L97.0171 52.1151L93.8332 54.126C93.8332 54.4611 94.0008 54.7963 94.0008 55.1314L97.8549 52.4502C97.8549 52.1151 97.8549 51.9475 97.6874 51.6124L93.498 49.9366C93.6656 50.1042 93.498 50.4394 93.498 50.7745Z" fill="#EBEBEB"/>
<path d="M93.498 47.423L97.0171 46.0824L93.8332 44.0715C93.8332 43.7364 94.0008 43.4012 94.0008 43.0661L97.8549 45.7473C97.8549 46.0824 97.8549 46.25 97.6874 46.5851L93.498 48.2608C93.6656 47.9257 93.498 47.5906 93.498 47.423Z" fill="#EBEBEB"/>
<path d="M150.64 50.7745L147.121 52.1151L150.305 54.126C150.305 54.4611 150.137 54.7963 150.137 55.1314L146.283 52.4502C146.283 52.1151 146.283 51.9475 146.451 51.6124L150.64 49.9366C150.473 50.1042 150.64 50.4394 150.64 50.7745Z" fill="#EBEBEB"/>
<path d="M150.64 47.4229L147.121 46.0823L150.305 44.0715C150.305 43.7363 150.137 43.4012 150.137 43.066L146.283 45.7472C146.283 46.0823 146.283 46.2499 146.451 46.5851L150.64 48.2608C150.473 47.9256 150.64 47.5905 150.64 47.4229Z" fill="#EBEBEB"/>
<path d="M102.044 69.5426L105.563 68.0344L104.725 71.721C105.06 71.8886 105.228 72.0561 105.395 72.3913L106.401 67.6993C106.233 67.5317 105.898 67.3641 105.73 67.1965L101.541 68.8723C101.709 69.0398 101.876 69.375 102.044 69.5426Z" fill="#EBEBEB"/>
<path d="M99.8651 66.1911L101.541 62.8396L97.8543 63.5099C97.6867 63.1748 97.5191 63.0072 97.3516 62.6721L102.044 62.0018C102.211 62.1693 102.379 62.5045 102.546 62.6721L100.535 66.6938C100.368 66.5262 100.033 66.3587 99.8651 66.1911Z" fill="#EBEBEB"/>
<path d="M144.44 31.1683L142.764 34.5198L146.451 33.8495C146.618 34.1846 146.786 34.3522 146.954 34.6873L142.262 35.3576C142.094 35.19 141.926 34.8549 141.759 34.6873L143.77 30.6656C143.937 30.8332 144.272 31.0007 144.44 31.1683Z" fill="#EBEBEB"/>
<path d="M141.758 27.8169L138.239 29.325L139.077 25.6384C138.742 25.4709 138.574 25.3033 138.407 24.9681L137.401 29.6602C137.569 29.8277 137.904 29.9953 138.072 30.1629L142.261 28.4872C141.926 28.3196 141.926 28.152 141.758 27.8169Z" fill="#EBEBEB"/>
<path d="M122.32 19.941C106.401 19.941 93.3301 33.0116 93.3301 48.931C93.3301 64.8504 106.401 77.921 122.32 77.921C138.239 77.921 151.31 64.8504 151.31 48.931C151.31 33.0116 138.407 19.941 122.32 19.941ZM122.32 77.0832C106.903 77.0832 94.3355 64.5153 94.3355 49.0986C94.3355 33.6819 106.903 21.114 122.32 21.114C137.737 21.114 150.305 33.6819 150.305 49.0986C150.305 64.5153 137.737 77.0832 122.32 77.0832Z" fill="#EBEBEB"/>
<path d="M122.32 24.4655C108.747 24.4655 97.8545 35.5252 97.8545 48.931C97.8545 62.5044 108.914 73.3966 122.32 73.3966C135.893 73.3966 146.786 62.3368 146.786 48.931C146.953 35.5252 135.893 24.4655 122.32 24.4655ZM122.32 72.7263C109.249 72.7263 98.6924 62.1693 98.6924 49.0986C98.6924 36.028 109.249 25.4709 122.32 25.4709C135.391 25.4709 145.948 36.028 145.948 49.0986C146.115 62.0017 135.391 72.7263 122.32 72.7263Z" fill="#EBEBEB"/>
<path d="M122.823 20.4438H121.985V49.0987H122.823V20.4438Z" fill="#EBEBEB"/>
<path d="M151.31 48.9311H93.665V49.769H151.31V48.9311Z" fill="#EBEBEB"/>
<path d="M97.2485 36.0436L96.874 36.7932L148.443 62.5604L148.818 61.8109L97.2485 36.0436Z" fill="#EBEBEB"/>
<path d="M101.261 29.3169L100.701 29.9402L143.583 68.4643L144.143 67.841L101.261 29.3169Z" fill="#EBEBEB"/>
<path d="M107.178 24.4969L106.474 24.9508L137.7 73.4071L138.404 72.9533L107.178 24.4969Z" fill="#EBEBEB"/>
<path d="M115.565 21.0488L114.758 21.2735L130.218 76.8086L131.025 76.5839L115.565 21.0488Z" fill="#EBEBEB"/>
<path d="M93.7863 42.6485L93.6035 43.4661L149.859 56.0385L150.042 55.2208L93.7863 42.6485Z" fill="#EBEBEB"/>
<path d="M147.418 35.6647L95.8369 61.4032L96.211 62.1529L147.792 36.4145L147.418 35.6647Z" fill="#EBEBEB"/>
<path d="M143.041 28.995L100.153 67.5134L100.713 68.1367L143.601 29.6184L143.041 28.995Z" fill="#EBEBEB"/>
<path d="M136.765 23.8878L106.312 72.8284L107.023 73.271L137.477 24.3305L136.765 23.8878Z" fill="#EBEBEB"/>
<path d="M128.539 20.5379L113.304 76.1307L114.112 76.3521L129.347 20.7593L128.539 20.5379Z" fill="#EBEBEB"/>
<path d="M149.668 41.9512L93.7578 55.9819L93.9617 56.7946L149.872 42.7638L149.668 41.9512Z" fill="#EBEBEB"/>
<path d="M114.612 18.2653H114.444C113.271 18.2653 112.266 19.2708 112.266 20.4438C112.266 21.6168 113.271 22.6222 114.444 22.6222H114.612C115.785 22.6222 116.79 21.6168 116.79 20.4438C116.79 19.2708 115.785 18.2653 114.612 18.2653Z" fill="#625A5E"/>
<path d="M129.694 18.2653H129.526C128.353 18.2653 127.348 19.2708 127.348 20.4438C127.348 21.6168 128.353 22.6222 129.526 22.6222H129.694C130.867 22.6222 131.872 21.6168 131.872 20.4438C131.872 19.2708 130.867 18.2653 129.694 18.2653Z" fill="#625A5E"/>
<path d="M122.488 17.2599H122.32C121.147 17.2599 120.142 18.2653 120.142 19.4383C120.142 20.6113 121.147 21.6168 122.32 21.6168H122.488C123.661 21.6168 124.666 20.6113 124.666 19.4383C124.666 18.2653 123.661 17.2599 122.488 17.2599Z" fill="#625A5E"/>
<path d="M137.57 21.6167H137.402C136.229 21.6167 135.224 22.6221 135.224 23.7951C135.224 24.9682 136.229 25.9736 137.402 25.9736H137.57C138.743 25.9736 139.748 24.9682 139.748 23.7951C139.748 22.6221 138.91 21.6167 137.57 21.6167Z" fill="#625A5E"/>
<path d="M106.401 21.6168H106.233C105.06 21.6168 104.055 22.6222 104.055 23.7952C104.055 24.9682 105.06 25.9736 106.233 25.9736H106.401C107.574 25.9736 108.579 24.9682 108.579 23.7952C108.579 22.6222 107.574 21.6168 106.401 21.6168Z" fill="#625A5E"/>
<path d="M100.2 27.1467H100.033C98.8599 27.1467 97.8545 28.1522 97.8545 29.3252C97.8545 30.4982 98.8599 31.5036 100.033 31.5036H100.2C101.374 31.5036 102.379 30.4982 102.379 29.3252C102.379 28.1522 101.541 27.1467 100.2 27.1467Z" fill="#625A5E"/>
<path d="M93.8323 40.3849H93.6648C92.4918 40.3849 91.4863 41.3903 91.4863 42.5633C91.4863 43.7363 92.4918 44.7418 93.6648 44.7418H93.8323C95.0054 44.7418 96.0108 43.7363 96.0108 42.5633C96.0108 41.3903 95.1729 40.3849 93.8323 40.3849Z" fill="#625A5E"/>
<path d="M150.975 40.3849H150.807C149.634 40.3849 148.629 41.3903 148.629 42.5633C148.629 43.7363 149.634 44.7418 150.807 44.7418H150.975C152.148 44.7418 153.153 43.7363 153.153 42.5633C153.153 41.3903 152.148 40.3849 150.975 40.3849Z" fill="#625A5E"/>
<path d="M96.179 33.8497H96.0114C94.8384 33.8497 93.833 34.8551 93.833 36.0281C93.833 37.2011 94.8384 38.2066 96.0114 38.2066H96.179C97.352 38.2066 98.3575 37.2011 98.3575 36.0281C98.3575 34.8551 97.352 33.8497 96.179 33.8497Z" fill="#625A5E"/>
<path d="M147.791 33.8496H147.624C146.451 33.8496 145.445 34.855 145.445 36.0281C145.445 37.2011 146.451 38.2065 147.624 38.2065H147.791C148.964 38.2065 149.97 37.2011 149.97 36.0281C149.97 34.855 148.964 33.8496 147.791 33.8496Z" fill="#625A5E"/>
<path d="M93.1624 47.2553H92.9949C91.8218 47.2553 90.8164 48.2607 90.8164 49.4338C90.8164 50.6068 91.8218 51.6122 92.9949 51.6122H93.1624C94.3354 51.6122 95.3409 50.6068 95.3409 49.4338C95.3409 48.0932 94.3354 47.2553 93.1624 47.2553Z" fill="#625A5E"/>
<path d="M151.478 47.2553H151.31C150.137 47.2553 149.132 48.2607 149.132 49.4338C149.132 50.6068 150.137 51.6122 151.31 51.6122H151.478C152.651 51.6122 153.656 50.6068 153.656 49.4338C153.656 48.0932 152.651 47.2553 151.478 47.2553Z" fill="#625A5E"/>
<path d="M96.179 59.9908H96.0114C94.8384 59.9908 93.833 60.9963 93.833 62.1693C93.833 63.3423 94.8384 64.3477 96.0114 64.3477H96.179C97.352 64.3477 98.3575 63.3423 98.3575 62.1693C98.3575 60.9963 97.352 59.9908 96.179 59.9908Z" fill="#625A5E"/>
<path d="M93.8323 54.2935H93.6648C92.4918 54.2935 91.4863 55.2989 91.4863 56.4719C91.4863 57.6449 92.4918 58.6503 93.6648 58.6503H93.8323C95.0054 58.6503 96.0108 57.6449 96.0108 56.4719C96.0108 55.1313 95.1729 54.2935 93.8323 54.2935Z" fill="#625A5E"/>
<path d="M150.473 54.2935H150.137C148.964 54.2935 147.959 55.2989 147.959 56.4719C147.959 57.6449 148.964 58.6503 150.137 58.6503H150.305C151.478 58.6503 152.483 57.6449 152.483 56.4719C152.651 55.1313 151.646 54.2935 150.473 54.2935Z" fill="#625A5E"/>
<path d="M148.126 60.4935H147.959C146.786 60.4935 145.78 61.499 145.78 62.672C145.78 63.845 146.786 64.8504 147.959 64.8504H148.126C149.299 64.8504 150.305 63.845 150.305 62.672C150.305 61.499 149.299 60.4935 148.126 60.4935Z" fill="#625A5E"/>
<path d="M100.2 65.8559H100.033C98.8599 65.8559 97.8545 66.8613 97.8545 68.0343C97.8545 69.2073 98.8599 70.2128 100.033 70.2128H100.2C101.374 70.2128 102.379 69.2073 102.379 68.0343C102.379 66.8613 101.541 65.8559 100.2 65.8559Z" fill="#625A5E"/>
<path d="M144.272 65.8559H144.104C142.931 65.8559 141.926 66.8613 141.926 68.0343C141.926 69.2073 142.931 70.2128 144.104 70.2128H144.272C145.445 70.2128 146.45 69.2073 146.45 68.0343C146.45 66.8613 145.445 65.8559 144.272 65.8559Z" fill="#625A5E"/>
<path d="M113.606 74.5697H113.438C112.265 74.5697 111.26 75.5751 111.26 76.7481C111.26 77.9212 112.265 78.9266 113.438 78.9266H113.606C114.779 78.9266 115.784 77.9212 115.784 76.7481C115.784 75.5751 114.779 74.5697 113.606 74.5697Z" fill="#625A5E"/>
<path d="M105.898 71.3858H105.73C104.557 71.3858 103.552 72.3912 103.552 73.5643C103.552 74.7373 104.557 75.7427 105.73 75.7427H105.898C107.071 75.7427 108.076 74.7373 108.076 73.5643C108.076 72.3912 107.071 71.3858 105.898 71.3858Z" fill="#625A5E"/>
<path d="M138.575 71.2183H138.407C137.234 71.2183 136.229 72.2237 136.229 73.3967C136.229 74.5697 137.234 75.5751 138.407 75.5751H138.575C139.748 75.5751 140.753 74.5697 140.753 73.3967C140.753 72.2237 139.748 71.2183 138.575 71.2183Z" fill="#625A5E"/>
<path d="M131.034 74.7372H130.866C129.693 74.7372 128.688 75.7427 128.688 76.9157C128.688 78.0887 129.693 79.0941 130.866 79.0941H131.034C132.207 79.0941 133.212 78.0887 133.212 76.9157C133.212 75.7427 132.207 74.7372 131.034 74.7372Z" fill="#625A5E"/>
<path d="M143.434 27.1467H143.266C142.093 27.1467 141.088 28.1522 141.088 29.3252C141.088 30.4982 142.093 31.5036 143.266 31.5036H143.434C144.607 31.5036 145.612 30.4982 145.612 29.3252C145.612 28.1522 144.607 27.1467 143.434 27.1467Z" fill="#625A5E"/>
<path d="M114.444 19.4382C113.774 19.4382 113.271 19.941 113.271 20.4437C113.271 21.114 113.774 21.4491 114.277 21.4491H114.444C115.115 21.4491 115.45 20.9464 115.45 20.4437C115.618 19.7734 115.115 19.4382 114.444 19.4382Z" fill="#827C7F"/>
<path d="M129.694 19.4382C129.023 19.4382 128.521 19.941 128.521 20.4437C128.521 21.114 129.023 21.4491 129.526 21.4491H129.694C130.364 21.4491 130.699 20.9464 130.699 20.4437C130.699 19.7734 130.196 19.4382 129.694 19.4382Z" fill="#827C7F"/>
<path d="M122.487 18.2653C121.817 18.2653 121.314 18.768 121.314 19.2708C121.314 19.941 121.817 20.2762 122.32 20.2762H122.487C123.158 20.2762 123.493 19.7735 123.493 19.2708C123.493 18.768 122.99 18.2653 122.487 18.2653Z" fill="#827C7F"/>
<path d="M137.569 22.6223C136.899 22.6223 136.396 23.125 136.396 23.6277C136.396 24.298 136.899 24.6331 137.402 24.6331H137.569C138.24 24.6331 138.575 24.1304 138.575 23.6277C138.743 23.125 138.24 22.6223 137.569 22.6223Z" fill="#827C7F"/>
<path d="M106.401 22.6223C105.73 22.6223 105.228 23.125 105.228 23.6277C105.228 24.298 105.73 24.6331 106.233 24.6331H106.401C107.071 24.6331 107.406 24.1304 107.406 23.6277C107.406 23.125 106.903 22.6223 106.401 22.6223Z" fill="#827C7F"/>
<path d="M100.2 28.1521C99.5301 28.1521 99.0273 28.6548 99.0273 29.1575C99.0273 29.8278 99.5301 30.163 100.033 30.163H100.2C100.871 30.163 101.206 29.6603 101.206 29.1575C101.373 28.6548 100.871 28.1521 100.2 28.1521Z" fill="#827C7F"/>
<path d="M93.8332 41.5579C93.1629 41.5579 92.6602 42.0606 92.6602 42.5633C92.6602 43.2336 93.1629 43.5687 93.6656 43.5687H93.8332C94.5035 43.5687 94.8386 43.066 94.8386 42.5633C95.0062 42.0606 94.5035 41.5579 93.8332 41.5579Z" fill="#827C7F"/>
<path d="M150.808 41.5579C150.137 41.5579 149.635 42.0606 149.635 42.5633C149.635 43.2336 150.137 43.5687 150.64 43.5687H150.808C151.478 43.5687 151.813 43.066 151.813 42.5633C151.981 42.0606 151.478 41.5579 150.808 41.5579Z" fill="#827C7F"/>
<path d="M96.1789 35.0226C95.5086 35.0226 95.0059 35.5253 95.0059 36.028C95.0059 36.6983 95.5086 37.0335 96.0113 37.0335H96.1789C96.8492 37.0335 97.1843 36.5307 97.1843 36.028C97.1843 35.5253 96.6816 35.0226 96.1789 35.0226Z" fill="#827C7F"/>
<path d="M147.791 35.0226C147.121 35.0226 146.618 35.5253 146.618 36.028C146.618 36.6983 147.121 37.0335 147.624 37.0335H147.791C148.461 37.0335 148.797 36.5307 148.797 36.028C148.797 35.5253 148.294 35.0226 147.791 35.0226Z" fill="#827C7F"/>
<path d="M93.1623 48.2607C92.492 48.2607 91.9893 48.7635 91.9893 49.2662C91.9893 49.9365 92.492 50.2716 92.9947 50.2716H93.1623C93.8325 50.2716 94.1677 49.7689 94.1677 49.2662C94.1677 48.7635 93.665 48.2607 93.1623 48.2607Z" fill="#827C7F"/>
<path d="M151.478 48.2607C150.807 48.2607 150.305 48.7635 150.305 49.2662C150.305 49.9365 150.807 50.2716 151.31 50.2716H151.478C152.148 50.2716 152.483 49.7689 152.483 49.2662C152.483 48.7635 151.98 48.2607 151.478 48.2607Z" fill="#827C7F"/>
<path d="M96.1789 61.1639C95.5086 61.1639 95.0059 61.6666 95.0059 62.1693C95.0059 62.8396 95.5086 63.1748 96.0113 63.1748H96.1789C96.8492 63.1748 97.1843 62.672 97.1843 62.1693C97.1843 61.6666 96.6816 61.1639 96.1789 61.1639Z" fill="#827C7F"/>
<path d="M93.8332 55.2988C93.1629 55.2988 92.6602 55.8015 92.6602 56.3043C92.6602 56.9746 93.1629 57.3097 93.6656 57.3097H93.8332C94.5035 57.3097 94.8386 56.807 94.8386 56.3043C95.0062 55.8015 94.5035 55.2988 93.8332 55.2988Z" fill="#827C7F"/>
<path d="M150.305 55.2988C149.635 55.2988 149.132 55.8015 149.132 56.3043C149.132 56.9746 149.635 57.3097 150.137 57.3097H150.305C150.975 57.3097 151.31 56.807 151.31 56.3043C151.478 55.8015 150.975 55.2988 150.305 55.2988Z" fill="#827C7F"/>
<path d="M148.126 61.499C147.456 61.499 146.953 62.0017 146.953 62.5045C146.953 63.1747 147.456 63.5099 147.959 63.5099H148.126C148.796 63.5099 149.132 63.0072 149.132 62.5045C149.132 62.0017 148.629 61.499 148.126 61.499Z" fill="#827C7F"/>
<path d="M100.2 67.0289C99.5301 67.0289 99.0273 67.5316 99.0273 68.0343C99.0273 68.7046 99.5301 69.0397 100.033 69.0397H100.2C100.871 69.0397 101.206 68.537 101.206 68.0343C101.373 67.5316 100.871 67.0289 100.2 67.0289Z" fill="#827C7F"/>
<path d="M144.105 67.0289C143.434 67.0289 142.932 67.5316 142.932 68.0343C142.932 68.7046 143.434 69.0397 143.937 69.0397H144.105C144.775 69.0397 145.11 68.537 145.11 68.0343C145.278 67.5316 144.775 67.0289 144.105 67.0289Z" fill="#827C7F"/>
<path d="M113.607 75.7427C112.936 75.7427 112.434 76.2454 112.434 76.7481C112.434 77.4184 112.936 77.7535 113.439 77.7535H113.607C114.277 77.7535 114.612 77.2508 114.612 76.7481C114.612 76.0778 114.109 75.7427 113.607 75.7427Z" fill="#827C7F"/>
<path d="M105.899 72.5588C105.228 72.5588 104.726 73.0615 104.726 73.5642C104.726 74.2345 105.228 74.5696 105.731 74.5696H105.899C106.569 74.5696 106.904 74.0669 106.904 73.5642C106.904 73.0615 106.401 72.5588 105.899 72.5588Z" fill="#827C7F"/>
<path d="M138.574 72.2236C137.904 72.2236 137.401 72.7264 137.401 73.2291C137.401 73.8994 137.904 74.2345 138.407 74.2345H138.574C139.245 74.2345 139.58 73.7318 139.58 73.2291C139.58 72.7264 139.077 72.2236 138.574 72.2236Z" fill="#827C7F"/>
<path d="M131.034 75.9102C130.364 75.9102 129.861 76.4129 129.861 76.9157C129.861 77.5859 130.364 77.9211 130.867 77.9211H131.034C131.705 77.9211 132.04 77.4184 132.04 76.9157C132.04 76.2454 131.537 75.9102 131.034 75.9102Z" fill="#827C7F"/>
<path d="M143.267 28.1522C142.596 28.1522 142.094 28.6549 142.094 29.1576C142.094 29.8279 142.596 30.163 143.099 30.163H143.267C143.937 30.163 144.272 29.6603 144.272 29.1576C144.44 28.6549 143.937 28.1522 143.267 28.1522Z" fill="#827C7F"/>
<path d="M125.336 48.9311H119.136L115.449 91.9972H116.455H117.795H127.179H128.52H129.525L125.336 48.9311ZM117.795 89.3161L121.314 55.1313H123.158L126.677 89.3161H117.795Z" fill="#CFCFCF"/>
<path d="M122.32 45.2446C120.309 45.2446 118.466 46.9203 118.466 49.0987C118.466 51.1096 120.142 52.9529 122.32 52.9529C124.331 52.9529 126.174 51.2772 126.174 49.0987C126.007 46.9203 124.331 45.2446 122.32 45.2446Z" fill="#BFBFBF"/>
<path d="M166.726 34.6877L162.369 65.3534H171.25L166.726 34.6877Z" fill="#ABABAB"/>
<path d="M166.894 26.9792L162.369 35.3578H166.894H171.25L166.894 26.9792Z" fill="#E4E4E4"/>
<path d="M166.894 38.3743C166.894 38.3743 167.229 79.4295 153.823 95.3489H143.602C143.602 95.3489 158.18 82.781 160.694 66.8616C163.208 50.9422 163.543 37.704 163.543 37.704L166.894 38.3743Z" fill="#E4E4E4"/>
<path d="M166.894 38.3743C166.894 38.3743 166.559 79.4295 179.965 95.3489H190.187C190.187 95.3489 175.608 82.781 173.094 66.8616C170.581 50.9422 170.246 37.704 170.246 37.704L166.894 38.3743Z" fill="#E4E4E4"/>
<path d="M174.1 64.1804H159.688V66.5264H174.1V64.1804Z" fill="#ABABAB"/>
<path d="M172.089 36.1957H161.699V39.212H172.089V36.1957Z" fill="#C6C6AC"/>
<path d="M171.25 34.185H162.369V36.6986H171.25V34.185Z" fill="#ABABAB"/>
<path d="M172.089 36.1957H161.699V39.212H172.089V36.1957Z" fill="#ABABAB"/>
<path d="M168.066 28.9902C168.234 28.8226 168.234 28.4874 168.234 28.1523C168.234 27.3144 167.564 24.8008 166.726 24.8008C165.888 24.8008 165.218 27.3144 165.218 28.1523C165.218 28.4874 165.385 28.655 165.385 28.9902H168.066Z" fill="#ABABAB"/>
<path d="M166.894 26.6441C166.726 26.6441 166.559 26.4766 166.559 26.309V22.1197C166.559 21.9521 166.726 21.7845 166.894 21.7845C167.061 21.7845 167.229 21.9521 167.229 22.1197V26.309C167.229 26.6441 167.061 26.6441 166.894 26.6441Z" fill="#ABABAB"/>
<path d="M167.4 39.5171L166.916 39.981L169.583 42.763L170.067 42.2991L167.4 39.5171Z" fill="#ABABAB"/>
<path d="M169.584 39.6411L166.917 42.423L167.401 42.8869L170.068 40.105L169.584 39.6411Z" fill="#ABABAB"/>
<path d="M167.846 43.3189L167.362 43.7828L170.03 46.5647L170.514 46.1008L167.846 43.3189Z" fill="#ABABAB"/>
<path d="M169.909 43.3149L167.241 46.0968L167.725 46.5607L170.393 43.7788L169.909 43.3149Z" fill="#ABABAB"/>
<path d="M168.167 46.986L167.684 47.4499L170.351 50.2318L170.835 49.7679L168.167 46.986Z" fill="#ABABAB"/>
<path d="M170.234 46.9881L167.566 49.7701L168.05 50.234L170.718 47.452L170.234 46.9881Z" fill="#ABABAB"/>
<path d="M168.381 50.7906L167.897 51.2545L170.565 54.0364L171.049 53.5725L168.381 50.7906Z" fill="#ABABAB"/>
<path d="M170.559 50.662L167.892 53.444L168.375 53.9079L171.043 51.1259L170.559 50.662Z" fill="#ABABAB"/>
<path d="M168.698 54.4499L168.214 54.9138L170.881 57.6958L171.365 57.2319L168.698 54.4499Z" fill="#ABABAB"/>
<path d="M170.884 54.3348L168.217 57.1168L168.701 57.5807L171.368 54.7987L170.884 54.3348Z" fill="#ABABAB"/>
<path d="M169.033 58.1389L168.549 58.6028L171.216 61.3848L171.7 60.9209L169.033 58.1389Z" fill="#ABABAB"/>
<path d="M171.209 58.0091L168.542 60.7911L169.026 61.255L171.693 58.473L171.209 58.0091Z" fill="#ABABAB"/>
<path d="M169.354 61.8056L168.87 62.2695L171.538 65.0515L172.021 64.5875L169.354 61.8056Z" fill="#ABABAB"/>
<path d="M171.535 61.6831L168.867 64.4651L169.351 64.929L172.018 62.1471L171.535 61.6831Z" fill="#ABABAB"/>
<path d="M170.255 66.6631L169.771 67.127L172.439 69.909L172.923 69.4451L170.255 66.6631Z" fill="#ABABAB"/>
<path d="M172.44 66.7872L169.772 69.5691L170.256 70.033L172.924 67.2511L172.44 66.7872Z" fill="#ABABAB"/>
<path d="M171.137 70.1762L170.653 70.6401L173.321 73.422L173.805 72.9581L171.137 70.1762Z" fill="#ABABAB"/>
<path d="M173.315 70.2832L170.647 73.0652L171.131 73.5291L173.799 70.7471L173.315 70.2832Z" fill="#ABABAB"/>
<path d="M171.902 73.7756L171.418 74.2395L174.317 77.2633L174.801 76.7994L171.902 73.7756Z" fill="#ABABAB"/>
<path d="M174.324 73.6729L171.425 76.6968L171.909 77.1607L174.808 74.1368L174.324 73.6729Z" fill="#ABABAB"/>
<path d="M179.797 86.635L174.1 83.116L174.937 82.4457L180.467 85.7971L179.797 86.635Z" fill="#ABABAB"/>
<path d="M175.608 86.4674L179.295 83.1159L178.625 82.4456L174.771 85.9646L175.608 86.4674Z" fill="#ABABAB"/>
<path d="M182.143 90.8243L176.613 87.3053L177.451 86.635L182.981 89.9865L182.143 90.8243Z" fill="#ABABAB"/>
<path d="M177.954 90.8243L181.809 87.3052L181.138 86.6349L177.284 90.154L177.954 90.8243Z" fill="#ABABAB"/>
<path d="M185.495 95.0136L179.798 91.6621L180.636 90.8243L186.166 94.3433L185.495 95.0136Z" fill="#ABABAB"/>
<path d="M181.138 95.0137L184.992 91.4947L184.322 90.9919L180.468 94.3434L181.138 95.0137Z" fill="#ABABAB"/>
<path d="M166.225 39.6174L163.558 42.3994L164.041 42.8633L166.709 40.0813L166.225 39.6174Z" fill="#ABABAB"/>
<path d="M164.041 39.4951L163.558 39.959L166.225 42.7409L166.709 42.277L164.041 39.4951Z" fill="#ABABAB"/>
<path d="M165.887 43.3139L163.22 46.0958L163.704 46.5597L166.371 43.7778L165.887 43.3139Z" fill="#ABABAB"/>
<path d="M163.824 43.3181L163.34 43.782L166.007 46.564L166.491 46.1001L163.824 43.3181Z" fill="#ABABAB"/>
<path d="M165.559 47.0236L162.892 49.8055L163.375 50.2695L166.043 47.4875L165.559 47.0236Z" fill="#ABABAB"/>
<path d="M163.492 47.0206L163.008 47.4846L165.675 50.2665L166.159 49.8026L163.492 47.0206Z" fill="#ABABAB"/>
<path d="M165.217 50.7124L162.55 53.4943L163.034 53.9582L165.701 51.1763L165.217 50.7124Z" fill="#ABABAB"/>
<path d="M163.158 50.7221L162.674 51.186L165.341 53.968L165.825 53.5041L163.158 50.7221Z" fill="#ABABAB"/>
<path d="M164.893 54.4297L162.226 57.2116L162.709 57.6755L165.377 54.8936L164.893 54.4297Z" fill="#ABABAB"/>
<path d="M162.816 54.4101L162.332 54.874L164.999 57.6559L165.483 57.192L162.816 54.4101Z" fill="#ABABAB"/>
<path d="M164.667 57.9969L162 60.7789L162.484 61.2428L165.151 58.4608L164.667 57.9969Z" fill="#ABABAB"/>
<path d="M162.491 58.1268L162.007 58.5907L164.674 61.3726L165.158 60.9087L162.491 58.1268Z" fill="#ABABAB"/>
<path d="M164.338 61.7071L161.671 64.489L162.155 64.9529L164.822 62.171L164.338 61.7071Z" fill="#ABABAB"/>
<path d="M162.158 61.8289L161.674 62.2928L164.341 65.0748L164.825 64.6109L162.158 61.8289Z" fill="#ABABAB"/>
<path d="M163.38 66.7603L160.713 69.5422L161.197 70.0061L163.864 67.2242L163.38 66.7603Z" fill="#ABABAB"/>
<path d="M161.198 66.6385L160.714 67.1024L163.381 69.8843L163.865 69.4204L161.198 66.6385Z" fill="#ABABAB"/>
<path d="M162.578 70.2534L159.91 73.0353L160.394 73.4992L163.061 70.7173L162.578 70.2534Z" fill="#ABABAB"/>
<path d="M160.4 70.1465L159.916 70.6104L162.583 73.3923L163.067 72.9284L160.4 70.1465Z" fill="#ABABAB"/>
<path d="M161.743 73.6435L158.844 76.6674L159.328 77.1313L162.227 74.1074L161.743 73.6435Z" fill="#ABABAB"/>
<path d="M159.323 73.7478L158.839 74.2117L161.738 77.2355L162.222 76.7716L159.323 73.7478Z" fill="#ABABAB"/>
<path d="M153.991 86.6351L159.521 83.1161L158.683 82.4458L153.153 85.7973L153.991 86.6351Z" fill="#ABABAB"/>
<path d="M158.181 86.4675L154.327 83.1161L155.165 82.4458L158.852 85.9648L158.181 86.4675Z" fill="#ABABAB"/>
<path d="M151.478 90.8244L157.007 87.3054L156.17 86.6351L150.64 89.9866L151.478 90.8244Z" fill="#ABABAB"/>
<path d="M155.668 90.8244L151.813 87.3054L152.651 86.6351L156.338 90.1542L155.668 90.8244Z" fill="#ABABAB"/>
<path d="M148.294 95.0138L153.824 91.6623L152.986 90.8245L147.456 94.3435L148.294 95.0138Z" fill="#ABABAB"/>
<path d="M152.483 95.0137L148.629 91.4947L149.467 90.992L153.153 94.3435L152.483 95.0137Z" fill="#ABABAB"/>
<path d="M180.133 76.078H153.656V81.943H180.133V76.078Z" fill="#E4E4E4"/>
<path d="M180.133 79.0944H153.656V82.1107H180.133V79.0944Z" fill="#ABABAB"/>
<path d="M65.0091 46.7527H56.4629V86.8026H65.0091V46.7527Z" fill="#CCCCD1"/>
<path opacity="0.75" d="M65.0091 47.0879H56.4629V55.8017H65.0091V47.0879Z" fill="#CCCCCA"/>
<path d="M65.0091 39.8823H56.4629V53.6233H65.0091V39.8823Z" fill="#CCCCD1"/>
<path d="M66.6852 42.7311H54.9551V55.1314H66.6852V42.7311Z" fill="#DEDEDE"/>
<path d="M65.1772 44.0716H56.2959V52.9529H65.1772V44.0716Z" fill="#808892"/>
<path d="M64.507 44.9094H57.1338V52.2826H64.507V44.9094Z" fill="#DEDEDE"/>
<path d="M63.3338 48.5961C63.3338 49.9367 62.1608 51.1097 60.8202 51.1097C59.4796 51.1097 58.3066 49.9367 58.3066 48.5961C58.3066 47.2555 59.4796 46.0825 60.8202 46.0825C62.1608 46.0825 63.3338 47.2555 63.3338 48.5961Z" fill="#CCBFB1"/>
<path d="M60.8206 45.4122C58.9773 45.4122 57.6367 46.9204 57.6367 48.5961C57.6367 50.4394 59.1449 51.78 60.8206 51.78C62.6639 51.78 64.0045 50.2718 64.0045 48.5961C64.0045 46.7528 62.6639 45.4122 60.8206 45.4122ZM60.8206 51.1097C59.48 51.1097 58.307 49.9367 58.307 48.5961C58.307 47.2555 59.48 46.0825 60.8206 46.0825C62.1612 46.0825 63.3342 47.2555 63.3342 48.5961C63.3342 49.9367 62.1612 51.1097 60.8206 51.1097Z" fill="#CCCCD1"/>
<path d="M60.8202 46.0825C59.4796 46.0825 58.3066 47.2555 58.3066 48.5961C58.3066 49.6015 58.8094 50.4394 59.6472 50.7745C59.9824 50.9421 60.3175 50.9421 60.6527 50.9421C61.9932 50.9421 63.1662 49.7691 63.1662 48.4285C63.1662 47.7582 62.9987 47.2555 62.6635 46.9204C62.1608 46.4177 61.4905 46.0825 60.8202 46.0825Z" fill="#ECECEC"/>
<path d="M60.8189 48.4286C60.6514 48.4286 60.6514 48.5962 60.6514 48.7638C60.6514 48.9314 60.8189 48.9314 60.9865 48.9314C61.1541 48.9314 61.1541 48.7638 61.1541 48.5962C60.9865 48.4286 60.9865 48.4286 60.8189 48.4286Z" fill="#4F4840"/>
<path d="M59.9814 47.7584V47.926L60.6517 48.5963L60.8193 48.4287L60.149 47.7584H59.9814Z" fill="#4F4840"/>
<path d="M60.9869 48.5963L60.8193 48.7638L62.4951 49.2665L62.6626 49.099L62.4951 48.9314L60.9869 48.5963Z" fill="#4F4840"/>
<path d="M57.8039 42.0607V41.2228C57.8039 41.0553 57.6363 40.8877 57.6363 40.8877C57.4688 40.8877 57.4688 41.0553 57.4688 41.2228V42.0607H57.8039Z" fill="#3B2E31"/>
<path d="M58.9767 42.0607V41.2228C58.9767 41.0553 58.8092 40.8877 58.8092 40.8877C58.6416 40.8877 58.6416 41.0553 58.6416 41.2228V42.0607H58.9767Z" fill="#3B2E31"/>
<path d="M59.9826 42.0607V41.2228C59.9826 41.0553 59.815 40.8877 59.815 40.8877C59.6475 40.8877 59.6475 41.0553 59.6475 41.2228V42.0607H59.9826Z" fill="#3B2E31"/>
<path d="M60.9875 42.0607V41.2228C60.9875 41.0553 60.8199 40.8877 60.8199 40.8877C60.6523 40.8877 60.6523 41.0553 60.6523 41.2228V42.0607H60.9875Z" fill="#3B2E31"/>
<path d="M62.1613 42.0607V41.2228C62.1613 41.0553 61.9937 40.8877 61.9937 40.8877C61.8262 40.8877 61.8262 41.0553 61.8262 41.2228V42.0607H62.1613Z" fill="#3B2E31"/>
<path d="M63.1662 42.0607V41.2228C63.1662 41.0553 62.9986 40.8877 62.9986 40.8877C62.8311 40.8877 62.8311 41.0553 62.8311 41.2228V42.0607H63.1662Z" fill="#3B2E31"/>
<path d="M64.1721 42.0607V41.2228C64.1721 41.0553 64.0045 40.8877 64.0045 40.8877C63.8369 40.8877 63.8369 41.0553 63.8369 41.2228V42.0607H64.1721Z" fill="#3B2E31"/>
<path d="M56.1281 54.6287V53.9584C56.1281 53.7909 55.9606 53.6233 55.9606 53.6233C55.793 53.6233 55.793 53.7909 55.793 53.9584V54.6287H56.1281Z" fill="#7E919D"/>
<path d="M57.301 54.6287V53.9584C57.301 53.7909 57.1334 53.6233 57.1334 53.6233C56.9658 53.6233 56.9658 53.7909 56.9658 53.9584V54.6287H57.301Z" fill="#7E919D"/>
<path d="M58.3068 54.6287V53.9584C58.3068 53.7909 58.1392 53.6233 58.1392 53.6233C57.9717 53.6233 57.9717 53.7909 57.9717 53.9584V54.6287H58.3068Z" fill="#7E919D"/>
<path d="M59.3117 54.6287V53.9584C59.3117 53.7909 59.1441 53.6233 59.1441 53.6233C58.9766 53.6233 58.9766 53.7909 58.9766 53.9584V54.6287H59.3117Z" fill="#7E919D"/>
<path d="M60.4846 54.6287V53.9584C60.4846 53.7909 60.317 53.6233 60.317 53.6233C60.1494 53.6233 60.1494 53.7909 60.1494 53.9584V54.6287H60.4846Z" fill="#7E919D"/>
<path d="M61.4904 54.6287V53.9584C61.4904 53.7909 61.3228 53.6233 61.3228 53.6233C61.1553 53.6233 61.1553 53.7909 61.1553 53.9584V54.6287H61.4904Z" fill="#7E919D"/>
<path d="M62.6633 54.6287V53.9584C62.6633 53.7909 62.4957 53.6233 62.4957 53.6233C62.3281 53.6233 62.3281 53.7909 62.3281 53.9584V54.6287H62.6633Z" fill="#7E919D"/>
<path d="M63.8361 54.6287V53.9584C63.8361 53.7909 63.6685 53.6233 63.6685 53.6233C63.501 53.6233 63.501 53.7909 63.501 53.9584V54.6287H63.8361Z" fill="#7E919D"/>
<path d="M64.842 54.6287V53.9584C64.842 53.7909 64.6744 53.6233 64.6744 53.6233C64.5068 53.6233 64.5068 53.7909 64.5068 53.9584V54.6287H64.842Z" fill="#7E919D"/>
<path d="M65.8469 54.6287V53.9584C65.8469 53.7909 65.6793 53.6233 65.6793 53.6233C65.5117 53.6233 65.5117 53.7909 65.5117 53.9584V54.6287H65.8469Z" fill="#7E919D"/>
<path d="M65.3448 39.8823H56.2959L58.8095 35.1902H62.8312L65.3448 39.8823Z" fill="#808892"/>
<path d="M62.8313 31.5037H58.8096V35.0227H62.8313V31.5037Z" fill="#CCCCD1"/>
<path d="M63.1666 31.5036H58.4746L60.8206 24.298L63.1666 31.5036Z" fill="#808892"/>
<path d="M60.9881 24.9683H60.4854L60.6529 24.298H60.9881V24.9683Z" fill="#808892"/>
<path d="M60.9875 24.8008L60.8199 23.4602L60.6523 24.8008H60.9875Z" fill="#808892"/>
<path d="M58.9775 36.6985V37.3688H59.1451V37.0336H59.4803V37.3688H59.6478V36.6985H58.9775Z" fill="#E5E3E4"/>
<path d="M59.6474 36.6985H58.8096L59.3123 36.3633L59.6474 36.6985Z" fill="#C7C4C9"/>
<path d="M57.9717 38.3742V39.0445V38.8769H58.4744V39.0445V38.3742H57.9717Z" fill="#E5E3E4"/>
<path d="M58.6416 38.3742H57.8037L58.3064 38.0391L58.6416 38.3742Z" fill="#C7C4C9"/>
<path d="M59.6475 38.3741V39.0444H59.815V38.8769H60.1502V39.0444H60.3178V38.3741H59.6475Z" fill="#E5E3E4"/>
<path d="M60.3174 38.3741H59.4795L59.9822 38.039L60.3174 38.3741Z" fill="#C7C4C9"/>
<path d="M61.3232 38.3741V39.0444H61.4908V38.8769H61.826V39.0444H61.9935V38.3741H61.3232Z" fill="#E5E3E4"/>
<path d="M62.1611 38.3741H61.3232L61.6584 38.039L62.1611 38.3741Z" fill="#C7C4C9"/>
<path d="M62.999 38.3741V39.0444H63.1666V38.8769H63.5017V39.0444H63.6693V38.3741H62.999Z" fill="#E5E3E4"/>
<path d="M63.8369 38.3741H62.999L63.3342 38.039L63.8369 38.3741Z" fill="#C7C4C9"/>
<path d="M60.4854 36.6985V37.3688H60.6529V37.0336H60.9881V37.3688H61.1556V36.6985H60.4854Z" fill="#E5E3E4"/>
<path d="M61.1552 36.6985H60.3174L60.8201 36.3633L61.1552 36.6985Z" fill="#C7C4C9"/>
<path d="M61.9932 36.6985V37.3688H62.1607V37.0336H62.4959V37.3688H62.6635V36.6985H61.9932Z" fill="#E5E3E4"/>
<path d="M62.6631 36.6985H61.8252L62.3279 36.3633L62.6631 36.6985Z" fill="#C7C4C9"/>
<path d="M60.8205 25.6387L60.4854 26.309H60.8205H61.1556L60.8205 25.6387Z" fill="#C7C4C9"/>
<path d="M60.8205 27.3144L60.4854 27.9847H60.8205H61.1556L60.8205 27.3144Z" fill="#C7C4C9"/>
<path d="M59.4797 30.4983L59.1445 31.001H59.4797H59.8148L59.4797 30.4983Z" fill="#C7C4C9"/>
<path d="M60.8205 30.4982L60.4854 31.0009H60.8205H61.1556L60.8205 30.4982Z" fill="#C7C4C9"/>
<path d="M62.1603 30.4983L61.8252 31.001H62.1603H62.4955L62.1603 30.4983Z" fill="#C7C4C9"/>
<path d="M60.1496 28.9901L59.8145 29.4928H60.1496H60.3172L60.1496 28.9901Z" fill="#C7C4C9"/>
<path d="M61.4904 28.9902L61.1553 29.4929H61.4904H61.8256L61.4904 28.9902Z" fill="#C7C4C9"/>
<path d="M58.4742 63.6776C58.3067 63.6776 58.3066 63.5101 58.3066 63.5101V57.1423C58.3066 56.9747 58.4742 56.9747 58.4742 56.9747C58.6418 56.9747 58.6418 57.1423 58.6418 57.1423V63.5101L58.4742 63.6776Z" fill="#808892"/>
<path d="M59.4801 63.6776C59.3125 63.6776 59.3125 63.5101 59.3125 63.5101V57.1423C59.3125 56.9747 59.4801 56.9747 59.4801 56.9747C59.6476 56.9747 59.6476 57.1423 59.6476 57.1423V63.5101L59.4801 63.6776Z" fill="#808892"/>
<path d="M62.1607 63.6776C61.9932 63.6776 61.9932 63.5101 61.9932 63.5101V57.1423C61.9932 56.9747 62.1607 56.9747 62.1607 56.9747C62.3283 56.9747 62.3283 57.1423 62.3283 57.1423V63.5101C62.4959 63.5101 62.3283 63.6776 62.1607 63.6776Z" fill="#808892"/>
<path d="M63.1656 63.6776C62.998 63.6776 62.998 63.5101 62.998 63.5101V57.1423C62.998 56.9747 63.1656 56.9747 63.1656 56.9747C63.3332 56.9747 63.3332 57.1423 63.3332 57.1423V63.5101C63.5008 63.5101 63.3332 63.6776 63.1656 63.6776Z" fill="#808892"/>
<path d="M58.4742 74.2346C58.3067 74.2346 58.3066 74.0671 58.3066 74.0671V67.6993C58.3066 67.5317 58.4742 67.5317 58.4742 67.5317C58.6418 67.5317 58.6418 67.6993 58.6418 67.6993V74.0671L58.4742 74.2346Z" fill="#808892"/>
<path d="M59.4801 74.2346C59.3125 74.2346 59.3125 74.0671 59.3125 74.0671V67.6993C59.3125 67.5317 59.4801 67.5317 59.4801 67.5317C59.6476 67.5317 59.6476 67.6993 59.6476 67.6993V74.0671L59.4801 74.2346Z" fill="#808892"/>
<path d="M62.1607 74.2346C61.9932 74.2346 61.9932 74.0671 61.9932 74.0671V67.6993C61.9932 67.5317 62.1607 67.5317 62.1607 67.5317C62.3283 67.5317 62.3283 67.6993 62.3283 67.6993V74.0671C62.4959 74.0671 62.3283 74.2346 62.1607 74.2346Z" fill="#808892"/>
<path d="M63.1656 74.2346C62.998 74.2346 62.998 74.0671 62.998 74.0671V67.6993C62.998 67.5317 63.1656 67.5317 63.1656 67.5317C63.3332 67.5317 63.3332 67.6993 63.3332 67.6993V74.0671C63.5008 74.0671 63.3332 74.2346 63.1656 74.2346Z" fill="#808892"/>
<path d="M58.4742 84.7917C58.3067 84.7917 58.3066 84.6241 58.3066 84.6241V78.2564C58.3066 78.0888 58.4742 78.0888 58.4742 78.0888C58.6418 78.0888 58.6418 78.2564 58.6418 78.2564V84.6241C58.6418 84.7917 58.4742 84.7917 58.4742 84.7917Z" fill="#808892"/>
<path d="M59.4801 84.7917C59.3125 84.7917 59.3125 84.6241 59.3125 84.6241V78.2564C59.3125 78.0888 59.4801 78.0888 59.4801 78.0888C59.6476 78.0888 59.6476 78.2564 59.6476 78.2564V84.6241C59.6476 84.7917 59.4801 84.7917 59.4801 84.7917Z" fill="#808892"/>
<path d="M62.1607 84.7917C61.9932 84.7917 61.9932 84.6241 61.9932 84.6241V78.2564C61.9932 78.0888 62.1607 78.0888 62.1607 78.0888C62.3283 78.0888 62.3283 78.2564 62.3283 78.2564V84.6241C62.4959 84.7917 62.3283 84.7917 62.1607 84.7917Z" fill="#808892"/>
<path d="M63.1656 84.7917C62.998 84.7917 62.998 84.6241 62.998 84.6241V78.2564C62.998 78.0888 63.1656 78.0888 63.1656 78.0888C63.3332 78.0888 63.3332 78.2564 63.3332 78.2564V84.6241C63.5008 84.7917 63.3332 84.7917 63.1656 84.7917Z" fill="#808892"/>
<path d="M65.0091 64.683H56.4629V65.1858H65.0091V64.683Z" fill="#DED7D1"/>
<path d="M65.0091 65.6885H56.4629V66.1912H65.0091V65.6885Z" fill="#DED7D1"/>
<path d="M65.0091 75.4077H56.4629V75.9104H65.0091V75.4077Z" fill="#DED7D1"/>
<path d="M65.0091 76.5807H56.4629V77.0834H65.0091V76.5807Z" fill="#DED7D1"/>
<path d="M125 66.8614H118.13V70.0453H125V66.8614Z" fill="#EDEBEC"/>
<path d="M119.303 67.3641H118.633V69.0398H119.303V67.3641Z" fill="#BDBDBD"/>
<path d="M120.644 67.3641H119.974V69.0398H120.644V67.3641Z" fill="#BDBDBD"/>
<path d="M121.817 67.3641H121.146V69.0398H121.817V67.3641Z" fill="#BDBDBD"/>
<path d="M122.99 67.3641H122.319V69.0398H122.99V67.3641Z" fill="#BDBDBD"/>
<path d="M124.162 67.3641H123.492V69.0398H124.162V67.3641Z" fill="#BDBDBD"/>
<path d="M125.503 66.0235H117.46V67.0289H125.503V66.0235Z" fill="#999999"/>
<path d="M72.7181 66.8614H65.8477V70.0453H72.7181V66.8614Z" fill="#EDEBEC"/>
<path d="M67.1879 67.3641H66.5176V69.0398H67.1879V67.3641Z" fill="#BDBDBD"/>
<path d="M68.3617 67.3641H67.6914V69.0398H68.3617V67.3641Z" fill="#BDBDBD"/>
<path d="M69.5346 67.3641H68.8643V69.0398H69.5346V67.3641Z" fill="#BDBDBD"/>
<path d="M70.8744 67.3641H70.2041V69.0398H70.8744V67.3641Z" fill="#BDBDBD"/>
<path d="M72.0482 67.3641H71.3779V69.0398H72.0482V67.3641Z" fill="#BDBDBD"/>
<path d="M73.2212 66.0235H65.1777V67.0289H73.2212V66.0235Z" fill="#999999"/>
<path d="M47.7499 68.5371H46.0742L46.7445 58.4828H46.9121L47.7499 68.5371Z" fill="#BDBDBD"/>
<path d="M144.775 68.5371H143.267L143.937 58.4828H144.104L144.775 68.5371Z" fill="#BDBDBD"/>
<path d="M151.645 69.5425H39.5391V94.5108H151.645V69.5425Z" fill="#BDBDBD"/>
<path d="M118.13 69.5425H72.7178V94.5108H118.13V69.5425Z" fill="#E5E3E4"/>
<path opacity="0.35" d="M151.645 72.2238H39.5391V74.7373H151.645V72.2238Z" fill="#D0CDCE"/>
<path d="M151.645 85.6295H39.5391V87.3052H151.645V85.6295Z" fill="#E3E3E3"/>
<path d="M151.645 69.5425H39.5391V73.2291H151.645V69.5425Z" fill="#E3E3E3"/>
<path d="M151.645 69.5425H39.5391V70.7156H151.645V69.5425Z" fill="#CDC0B2"/>
<path d="M104.893 70.2128H86.292V94.5108H104.893V70.2128Z" fill="#EDEBEC"/>
<path d="M102.378 73.2291H88.9727V86.6349H102.378V73.2291Z" fill="#999999"/>
<path d="M93.9998 73.2291H92.6592V86.6349H93.9998V73.2291Z" fill="#BDBDBD"/>
<path d="M98.1892 73.2291H96.8486V86.6349H98.1892V73.2291Z" fill="#BDBDBD"/>
<path d="M102.379 73.2291H101.038V86.6349H102.379V73.2291Z" fill="#BDBDBD"/>
<path d="M90.3132 73.2291H88.9727V86.6349H90.3132V73.2291Z" fill="#BDBDBD"/>
<path d="M148.964 69.5425H42.0527V71.2183H148.964V69.5425Z" fill="#999999"/>
<path opacity="0.35" d="M104.893 69.5425H86.292V71.2183H104.893V69.5425Z" fill="#D0CDCE"/>
<path d="M54.453 67.6993H39.5391V94.6784H54.453V67.6993Z" fill="#E5E3E4"/>
<path d="M54.453 69.8777H39.5391V72.2237H54.453V69.8777Z" fill="#C3C1C3"/>
<path d="M52.4424 73.2291H41.7178V86.6349H52.4424V73.2291Z" fill="#999999"/>
<path d="M45.9064 73.2291H44.7334V86.6349H45.9064V73.2291Z" fill="#BDBDBD"/>
<path d="M49.258 73.2291H48.085V86.6349H49.258V73.2291Z" fill="#BDBDBD"/>
<path d="M52.4416 73.2291H51.2686V86.6349H52.4416V73.2291Z" fill="#BDBDBD"/>
<path d="M42.8908 73.2291H41.7178V86.6349H42.8908V73.2291Z" fill="#BDBDBD"/>
<path d="M95.5079 88.3107C94.3349 88.3107 93.4971 89.3161 93.4971 90.3215V94.5109H97.6864V90.3215C97.6864 89.1485 96.681 88.3107 95.5079 88.3107Z" fill="#BDBDBD"/>
<path d="M100.2 89.4837C99.6971 89.4837 99.1943 90.154 99.1943 91.1594V94.5109H101.205V91.1594C101.373 90.3216 100.87 89.4837 100.2 89.4837Z" fill="#BDBDBD"/>
<path d="M90.816 89.4837C90.3133 89.4837 89.8105 90.154 89.8105 91.1594V94.5109H91.8214V91.1594C91.8214 90.3216 91.3187 89.4837 90.816 89.4837Z" fill="#BDBDBD"/>
<path d="M146.617 89.8188H144.606V94.5109H146.617V89.8188Z" fill="#BDBDBD"/>
<path d="M44.3986 76.2455H43.2256V79.4294H44.3986V76.2455Z" fill="#7B828A"/>
<path d="M47.5822 76.2455H46.4092V79.4294H47.5822V76.2455Z" fill="#7B828A"/>
<path d="M51.1017 76.2455H49.9287V79.4294H51.1017V76.2455Z" fill="#7B828A"/>
<path d="M44.3986 81.9429H43.2256V85.1267H44.3986V81.9429Z" fill="#7B828A"/>
<path d="M47.5822 81.9429H46.4092V85.1267H47.5822V81.9429Z" fill="#7B828A"/>
<path d="M51.1017 81.9429H49.9287V85.1267H51.1017V81.9429Z" fill="#7B828A"/>
<path d="M57.3017 76.2455H55.626V79.4294H57.3017V76.2455Z" fill="#7B828A"/>
<path d="M57.3017 81.9429H55.626V85.1267H57.3017V81.9429Z" fill="#7B828A"/>
<path d="M61.8261 76.2455H60.1504V79.4294H61.8261V76.2455Z" fill="#7B828A"/>
<path d="M61.8261 81.9429H60.1504V85.1267H61.8261V81.9429Z" fill="#7B828A"/>
<path d="M66.3505 76.2455H64.6748V79.4294H66.3505V76.2455Z" fill="#7B828A"/>
<path d="M66.3505 81.9429H64.6748V85.1267H66.3505V81.9429Z" fill="#7B828A"/>
<path d="M70.707 76.2455H69.0312V79.4294H70.707V76.2455Z" fill="#7B828A"/>
<path d="M70.707 81.9429H69.0312V85.1267H70.707V81.9429Z" fill="#7B828A"/>
<path d="M75.2324 76.2455H73.5566V79.4294H75.2324V76.2455Z" fill="#7B828A"/>
<path d="M75.2324 81.9429H73.5566V85.1267H75.2324V81.9429Z" fill="#7B828A"/>
<path d="M79.7558 76.2455H78.0801V79.4294H79.7558V76.2455Z" fill="#7B828A"/>
<path d="M79.7558 81.9429H78.0801V85.1267H79.7558V81.9429Z" fill="#7B828A"/>
<path d="M84.1132 76.2455H82.4375V79.4294H84.1132V76.2455Z" fill="#7B828A"/>
<path d="M84.1132 81.9429H82.4375V85.1267H84.1132V81.9429Z" fill="#7B828A"/>
<path d="M135.391 76.2455H133.715V79.4294H135.391V76.2455Z" fill="#7B828A"/>
<path d="M135.391 81.9429H133.715V85.1267H135.391V81.9429Z" fill="#7B828A"/>
<path d="M130.866 76.2455H129.19V79.4294H130.866V76.2455Z" fill="#7B828A"/>
<path d="M130.866 81.9429H129.19V85.1267H130.866V81.9429Z" fill="#7B828A"/>
<path d="M126.342 76.2455H124.666V79.4294H126.342V76.2455Z" fill="#7B828A"/>
<path d="M126.342 81.9429H124.666V85.1267H126.342V81.9429Z" fill="#7B828A"/>
<path d="M121.984 76.2455H120.309V79.4294H121.984V76.2455Z" fill="#7B828A"/>
<path d="M121.984 81.9429H120.309V85.1267H121.984V81.9429Z" fill="#7B828A"/>
<path d="M117.46 76.2455H115.784V79.4294H117.46V76.2455Z" fill="#7B828A"/>
<path d="M117.46 81.9429H115.784V85.1267H117.46V81.9429Z" fill="#7B828A"/>
<path d="M112.935 76.2455H111.26V79.4294H112.935V76.2455Z" fill="#7B828A"/>
<path d="M112.935 81.9429H111.26V85.1267H112.935V81.9429Z" fill="#7B828A"/>
<path d="M108.411 76.2455H106.735V79.4294H108.411V76.2455Z" fill="#7B828A"/>
<path d="M108.411 81.9429H106.735V85.1267H108.411V81.9429Z" fill="#7B828A"/>
<path d="M47.9181 89.8188H45.9072V94.5109H47.9181V89.8188Z" fill="#BDBDBD"/>
<path d="M47.7503 87.9755H46.2422V89.1485H47.7503V87.9755Z" fill="#BDBDBD"/>
<path d="M43.058 87.9755H41.5498V89.1485H43.058V87.9755Z" fill="#BDBDBD"/>
<path d="M43.058 89.8188H41.5498V92.3324H43.058V89.8188Z" fill="#BDBDBD"/>
<path d="M52.7767 87.9755H51.2686V89.1485H52.7767V87.9755Z" fill="#BDBDBD"/>
<path d="M52.7767 89.8188H51.2686V92.3324H52.7767V89.8188Z" fill="#BDBDBD"/>
<path d="M57.8041 87.9755H56.2959V89.1485H57.8041V87.9755Z" fill="#7B828A"/>
<path d="M57.8041 89.8188H56.2959V92.3324H57.8041V89.8188Z" fill="#7B828A"/>
<path d="M62.1605 87.9755H60.6523V89.1485H62.1605V87.9755Z" fill="#7B828A"/>
<path d="M62.1605 89.8188H60.6523V92.3324H62.1605V89.8188Z" fill="#7B828A"/>
<path d="M66.6859 87.9755H65.1777V89.1485H66.6859V87.9755Z" fill="#7B828A"/>
<path d="M66.6859 89.8188H65.1777V92.3324H66.6859V89.8188Z" fill="#7B828A"/>
<path d="M70.7074 87.9756H69.1992V89.1486H70.7074V87.9756Z" fill="#7B828A"/>
<path d="M70.7074 89.8188H69.1992V92.3324H70.7074V89.8188Z" fill="#7B828A"/>
<path d="M75.9027 87.9755H74.3945V89.1485H75.9027V87.9755Z" fill="#7B828A"/>
<path d="M75.9027 89.8188H74.3945V92.3324H75.9027V89.8188Z" fill="#7B828A"/>
<path d="M80.0911 87.9755H78.583V89.1485H80.0911V87.9755Z" fill="#7B828A"/>
<path d="M80.0911 89.8188H78.583V92.3324H80.0911V89.8188Z" fill="#7B828A"/>
<path d="M84.2806 87.9755H82.7725V89.1485H84.2806V87.9755Z" fill="#7B828A"/>
<path d="M84.2806 89.8188H82.7725V92.3324H84.2806V89.8188Z" fill="#7B828A"/>
<path d="M134.887 87.9756H133.379V89.1486H134.887V87.9756Z" fill="#7B828A"/>
<path d="M134.887 89.8189H133.379V92.3325H134.887V89.8189Z" fill="#7B828A"/>
<path d="M130.363 87.9756H128.854V89.1486H130.363V87.9756Z" fill="#7B828A"/>
<path d="M130.363 89.8188H128.854V92.3324H130.363V89.8188Z" fill="#7B828A"/>
<path d="M126.006 87.9756H124.498V89.1486H126.006V87.9756Z" fill="#7B828A"/>
<path d="M126.006 89.8189H124.498V92.3325H126.006V89.8189Z" fill="#7B828A"/>
<path d="M121.817 87.9756H120.309V89.1486H121.817V87.9756Z" fill="#7B828A"/>
<path d="M121.817 89.8189H120.309V92.3325H121.817V89.8189Z" fill="#7B828A"/>
<path d="M116.79 87.9756H115.282V89.1486H116.79V87.9756Z" fill="#7B828A"/>
<path d="M116.79 89.8189H115.282V92.3325H116.79V89.8189Z" fill="#7B828A"/>
<path d="M112.601 87.9756H111.093V89.1486H112.601V87.9756Z" fill="#7B828A"/>
<path d="M112.601 89.8188H111.093V92.3324H112.601V89.8188Z" fill="#7B828A"/>
<path d="M108.244 87.9756H106.735V89.1486H108.244V87.9756Z" fill="#7B828A"/>
<path d="M108.244 89.8188H106.735V92.3324H108.244V89.8188Z" fill="#7B828A"/>
<path d="M151.477 67.6993H136.563V94.6784H151.477V67.6993Z" fill="#E5E3E4"/>
<path d="M151.477 67.6993H136.563V94.6784H151.477V67.6993Z" fill="#E5E3E4"/>
<path d="M151.477 69.8777H136.563V72.2237H151.477V69.8777Z" fill="#C3C1C3"/>
<path d="M146.45 73.2291H145.277V86.6349H146.45V73.2291Z" fill="#BDBDBD"/>
<path d="M143.099 73.2291H141.926V86.6349H143.099V73.2291Z" fill="#BDBDBD"/>
<path d="M139.747 73.2291H138.574V86.6349H139.747V73.2291Z" fill="#BDBDBD"/>
<path d="M149.299 73.2291H148.126V86.6349H149.299V73.2291Z" fill="#BDBDBD"/>
<path d="M147.79 76.2455H146.617V79.4294H147.79V76.2455Z" fill="#7B828A"/>
<path d="M144.775 76.2455H143.602V79.4294H144.775V76.2455Z" fill="#7B828A"/>
<path d="M141.255 76.2455H140.082V79.4294H141.255V76.2455Z" fill="#7B828A"/>
<path d="M147.79 81.9429H146.617V85.1267H147.79V81.9429Z" fill="#7B828A"/>
<path d="M144.775 81.9429H143.602V85.1267H144.775V81.9429Z" fill="#7B828A"/>
<path d="M141.255 81.9429H140.082V85.1267H141.255V81.9429Z" fill="#7B828A"/>
<path d="M145.109 89.8188H143.099V94.5109H145.109V89.8188Z" fill="#BDBDBD"/>
<path d="M144.607 87.9755H143.434V89.1485H144.607V87.9755Z" fill="#BDBDBD"/>
<path d="M149.634 87.9755H148.126V89.1485H149.634V87.9755Z" fill="#BDBDBD"/>
<path d="M149.634 89.8188H148.126V92.3324H149.634V89.8188Z" fill="#BDBDBD"/>
<path d="M139.915 87.9755H138.407V89.1485H139.915V87.9755Z" fill="#BDBDBD"/>
<path d="M139.915 89.8188H138.407V92.3324H139.915V89.8188Z" fill="#BDBDBD"/>
<path d="M92.324 76.2455H90.9834V79.4294H92.324V76.2455Z" fill="#7B828A"/>
<path d="M96.1785 76.2455H94.8379V79.4294H96.1785V76.2455Z" fill="#7B828A"/>
<path d="M100.2 76.2455H98.8594V79.4294H100.2V76.2455Z" fill="#7B828A"/>
<path d="M92.324 81.7753H90.9834V84.9592H92.324V81.7753Z" fill="#7B828A"/>
<path d="M96.1785 81.7753H94.8379V84.9592H96.1785V81.7753Z" fill="#7B828A"/>
<path d="M100.2 81.7753H98.8594V84.9592H100.2V81.7753Z" fill="#7B828A"/>
<path d="M151.98 94.5109H39.0361V97.5272H151.98V94.5109Z" fill="#999999"/>
<path d="M95.8431 41.3904H95.1729V45.5797H95.8431V41.3904Z" fill="#DEDEDE"/>
<path d="M98.3562 51.6123C98.3562 51.4447 98.5238 51.2772 98.5238 51.1096C98.5238 50.1042 97.1832 49.2663 95.5075 49.2663C93.8318 49.2663 92.4912 50.1042 92.4912 51.1096C92.4912 51.2772 92.4912 51.4447 92.6588 51.6123H98.3562Z" fill="#D1D1D1"/>
<path d="M96.5132 46.7527H94.6699V50.1041H96.5132V46.7527Z" fill="#D1D1D1"/>
<path d="M104.892 63.1748H86.124V69.5426H104.892V63.1748Z" fill="#E5E3E4"/>
<path d="M104.892 68.202H86.124V69.5425H104.892V68.202Z" fill="#BDBDBD"/>
<path d="M104.892 63.1748H86.124V64.5154H104.892V63.1748Z" fill="#BDBDBD"/>
<path d="M87.7998 65.1857H86.9619V67.6993H87.7998V65.1857Z" fill="#BDBDBD"/>
<path d="M89.3076 65.1857H88.4697V67.6993H89.3076V65.1857Z" fill="#BDBDBD"/>
<path d="M90.8164 65.1857H89.9785V67.6993H90.8164V65.1857Z" fill="#BDBDBD"/>
<path d="M92.3242 65.1857H91.4863V67.6993H92.3242V65.1857Z" fill="#BDBDBD"/>
<path d="M93.832 65.1857H92.9941V67.6993H93.832V65.1857Z" fill="#BDBDBD"/>
<path d="M95.1728 65.1857H94.335V67.6993H95.1728V65.1857Z" fill="#BDBDBD"/>
<path d="M96.6806 65.1857H95.8428V67.6993H96.6806V65.1857Z" fill="#BDBDBD"/>
<path d="M98.1894 65.1857H97.3516V67.6993H98.1894V65.1857Z" fill="#BDBDBD"/>
<path d="M99.6972 65.1857H98.8594V67.6993H99.6972V65.1857Z" fill="#BDBDBD"/>
<path d="M101.205 65.1857H100.367V67.6993H101.205V65.1857Z" fill="#BDBDBD"/>
<path d="M102.546 65.1857H101.708V67.6993H102.546V65.1857Z" fill="#BDBDBD"/>
<path d="M104.054 65.1857H103.216V67.6993H104.054V65.1857Z" fill="#BDBDBD"/>
<path d="M102.714 58.1476H88.1348V63.1748H102.714V58.1476Z" fill="#E5E3E4"/>
<path d="M102.714 62.0018H88.1348V63.1748H102.714V62.0018Z" fill="#BDBDBD"/>
<path d="M102.714 58.1476H88.1348V59.3207H102.714V58.1476Z" fill="#BDBDBD"/>
<path d="M89.476 59.6558H88.8057V61.6666H89.476V59.6558Z" fill="#BDBDBD"/>
<path d="M90.6488 59.6558H89.9785V61.6666H90.6488V59.6558Z" fill="#BDBDBD"/>
<path d="M91.8216 59.6558H91.1514V61.6666H91.8216V59.6558Z" fill="#BDBDBD"/>
<path d="M92.9945 59.6558H92.3242V61.6666H92.9945V59.6558Z" fill="#BDBDBD"/>
<path d="M94.1674 59.6558H93.4971V61.6666H94.1674V59.6558Z" fill="#BDBDBD"/>
<path d="M95.3402 59.6558H94.6699V61.6666H95.3402V59.6558Z" fill="#BDBDBD"/>
<path d="M96.5131 59.6558H95.8428V61.6666H96.5131V59.6558Z" fill="#BDBDBD"/>
<path d="M97.6869 59.6558H97.0166V61.6666H97.6869V59.6558Z" fill="#BDBDBD"/>
<path d="M98.8588 59.6558H98.1885V61.6666H98.8588V59.6558Z" fill="#BDBDBD"/>
<path d="M99.8646 59.6558H99.1943V61.6666H99.8646V59.6558Z" fill="#BDBDBD"/>
<path d="M101.037 59.6558H100.367V61.6666H101.037V59.6558Z" fill="#BDBDBD"/>
<path d="M102.21 59.6558H101.54V61.6666H102.21V59.6558Z" fill="#BDBDBD"/>
<path d="M103.049 58.1476C103.216 57.6449 103.216 56.9746 103.216 56.4718C102.881 53.1204 99.5297 50.6068 95.6755 50.6068C91.8214 50.6068 88.4699 53.1204 88.1348 56.4718C88.1348 56.9746 88.1348 57.6449 88.3023 58.1476H103.049Z" fill="#E5E3E4"/>
<path d="M87.9678 57.1422C87.9678 57.4774 87.9678 57.8125 88.1353 58.1477H103.049C103.049 57.8125 103.217 57.4774 103.217 57.1422H87.9678Z" fill="#BDBDBD"/>
<path d="M94.3355 46.7527H96.6816C96.8491 46.5851 96.8491 46.5851 96.8491 46.4175C96.8491 45.9148 96.1788 45.5797 95.5086 45.5797C94.8383 45.5797 94.168 45.9148 94.168 46.4175C94.168 46.5851 94.168 46.7527 94.3355 46.7527Z" fill="#BDBDBD"/>
<path d="M96.3456 41.7256C96.3456 42.2283 96.0105 42.5634 95.5078 42.5634C95.0051 42.5634 94.6699 42.2283 94.6699 41.7256C94.6699 41.2228 95.0051 40.8877 95.5078 40.8877C96.0105 40.8877 96.3456 41.2228 96.3456 41.7256Z" fill="#BDBDBD"/>
<path d="M96.3456 44.0716C96.3456 44.5743 96.0105 44.9094 95.5078 44.9094C95.0051 44.9094 94.6699 44.5743 94.6699 44.0716C94.6699 43.5688 95.0051 43.2337 95.5078 43.2337C96.0105 43.2337 96.3456 43.5688 96.3456 44.0716Z" fill="#BDBDBD"/>
<path d="M96.681 46.7527H94.335V47.2554H96.681V46.7527Z" fill="#E5E3E4"/>
<path d="M35.0142 82.6132L32.6682 74.2345C32.5006 73.5642 32.333 72.8939 32.1654 72.2237C30.9924 68.7046 30.3222 54.7961 30.3222 54.7961C29.987 49.6014 29.4843 32.6766 29.1492 31.5036C28.9816 31.1684 28.4789 31.1684 28.4789 31.5036C28.1437 32.6766 27.641 49.6014 27.3058 54.7961C27.3058 54.7961 26.6356 68.7046 25.4626 72.2237C25.295 72.8939 25.1274 73.5642 24.9598 74.2345L22.6138 82.6132L15.4082 94.6784H19.2624C19.2624 94.6784 24.9598 84.9592 28.9816 84.9592C32.8357 84.9592 38.7008 94.6784 38.7008 94.6784H42.5549L35.0142 82.6132Z" fill="#FF2B55"/>
<path opacity="0.32" d="M30.4905 54.9637C30.4905 54.7961 30.4905 54.7961 30.4905 54.7961C30.3229 53.6231 30.323 51.6122 30.1554 49.4338H27.6418C27.4742 51.6122 27.4742 53.4555 27.3066 54.7961V54.9637H30.4905Z" fill="#562B3D"/>
<path opacity="0.32" d="M33.004 74.7373L32.8365 74.2345C32.6689 73.5642 32.5013 72.894 32.3337 72.2237C32.1662 71.721 31.9986 70.8831 31.831 70.0452H25.966C25.7984 70.8831 25.6308 71.721 25.4633 72.2237C25.2957 72.894 25.1281 73.5642 24.9606 74.2345L24.793 74.7373H33.004Z" fill="#562B3D"/>
<path opacity="0.32" d="M31.1604 66.191C30.9928 64.5153 30.8252 62.672 30.6577 60.9963H26.8035C26.6359 62.672 26.4684 64.5153 26.3008 66.191H31.1604Z" fill="#562B3D"/>
<path d="M30.9932 64.1802C30.8256 61.8342 30.6581 59.6557 30.4905 57.8124H26.9715C26.8039 59.4882 26.6363 61.8342 26.4688 64.1802H30.9932Z" fill="#A8A9AC"/>
<path d="M29.9874 45.4121C29.9874 43.5688 29.8199 41.7255 29.8199 40.0498H28.1441C27.9766 41.7255 27.9766 43.5688 27.9766 45.4121H29.9874Z" fill="#A8A9AC"/>
<path d="M25.2959 70.7155V72.3912H32.3339L32.5015 70.7155H25.2959Z" fill="#888A8E"/>
<path d="M24.625 68.8723L25.2953 71.5534H32.3333L33.0036 68.8723H24.625Z" fill="#A8A9AC"/>
<path d="M30.6573 47.9257H26.9707V53.4556H30.6573V47.9257Z" fill="#A8A9AC"/>
<path d="M30.6573 51.4447H26.9707V53.4556H30.6573V51.4447Z" fill="#888A8E"/>
<path d="M30.8255 52.2825H26.8037V53.4555H30.8255V52.2825Z" fill="#1F1715"/>
<path d="M19.7648 87.3052L19.5972 87.6404L20.9378 88.8134L18.089 90.3215L17.7539 90.9918L21.2729 89.3161L22.2784 90.3215C22.2784 90.154 22.4459 90.154 22.4459 89.9864L21.6081 89.1485L24.4568 87.808C24.7919 87.4728 25.1271 87.1377 25.4622 86.9701L21.2729 88.981L19.7648 87.3052Z" fill="#A8A9AC"/>
<path d="M17.5867 90.9918L17.2515 91.327L18.5921 92.5L15.7434 94.0081L15.4082 94.6784L18.9272 93.0027L19.7651 93.673C19.7651 93.5054 19.9327 93.5054 19.9327 93.3378L19.2624 92.6675L20.9381 91.8297C21.1057 91.6621 21.2732 91.327 21.4408 91.1594L19.0948 92.3324L17.5867 90.9918Z" fill="#A8A9AC"/>
<path d="M40.041 90.9918L39.7058 90.3215L36.8571 88.8134L38.1976 87.6404L37.8625 87.3052L36.3544 88.6458L32.165 86.6349C32.5002 86.9701 32.8353 87.1377 33.1705 87.4728L36.0192 88.8134L35.1813 89.6513C35.1813 89.8188 35.3489 89.8188 35.3489 89.9864L36.3544 88.981L40.041 90.9918Z" fill="#A8A9AC"/>
<path d="M41.8844 94.0081L39.0356 92.5L40.3762 91.327L40.2087 90.9918L38.7005 92.3324L36.3545 91.327C36.5221 91.4945 36.6896 91.8297 36.8572 91.9973L38.5329 92.8351L37.8626 93.5054C37.8626 93.673 38.0302 93.673 38.0302 93.8406L38.8681 93.1703L42.3871 94.846L41.8844 94.0081Z" fill="#A8A9AC"/>
<path d="M37.5275 86.635L37.1924 85.9647L34.0085 84.4565L35.5167 83.116L35.3491 82.7808L33.6734 84.289L29.3165 82.1105L32.3328 80.0997L34.8464 81.2727L34.5112 80.77L32.3328 79.7645L33.8409 78.7591L33.6734 78.4239L31.8301 79.7645L28.8138 78.4239L31.3274 76.0779L33.3382 76.9158L33.1707 76.4131L31.4949 75.7428L32.6679 74.7373L32.8355 74.2346L31.4949 75.5752L28.9813 74.5698V72.894L32.5004 73.3968C32.5004 73.2292 32.5004 73.2292 32.3328 73.0616L28.8138 72.5589V72.2238H28.4786V72.5589L24.9596 73.0616C24.9596 73.2292 24.9596 73.2292 24.792 73.3968L28.3111 72.894V74.5698L25.965 75.5752L24.6245 74.2346L24.4569 74.5698L25.6299 75.5752L23.9542 76.2455L23.7866 76.7482L25.7975 75.9104L28.3111 78.2564L25.2948 79.5969L23.4515 78.4239L23.2839 78.7591L24.792 79.7645L22.6136 80.77L22.9487 81.2727L25.4623 80.0997L28.4786 82.1105L24.1218 84.289L22.446 82.7808L22.2784 83.116L23.7866 84.4565L20.6027 85.9647L20.2676 86.635L24.1218 84.7917L25.7975 86.4674C25.965 86.4674 25.965 86.2998 26.1326 86.2998L24.4569 84.6241C24.4569 84.6241 28.4786 82.6133 28.6462 82.4457V84.9593H28.8138H28.9813V82.4457C29.4841 82.7808 33.1707 84.6241 33.1707 84.6241L31.4949 86.1323C31.6625 86.1323 31.6625 86.2998 31.8301 86.2998L33.5058 84.6241L37.5275 86.635ZM28.9813 74.9049L31.1598 75.7428L28.9813 77.9212V74.9049ZM28.6462 81.7754L25.965 79.9321L28.6462 78.7591V81.7754ZM28.6462 77.9212L26.4678 75.9104L28.6462 75.0725V77.9212ZM28.9813 78.7591L31.6625 79.9321L28.9813 81.7754V78.7591Z" fill="#A8A9AC"/>
<path d="M31.4959 68.5371C31.4959 68.3695 31.4959 68.2019 31.4959 68.0343L29.3175 66.5262L31.3284 65.1856C31.3284 65.018 31.3284 64.8505 31.3284 64.8505L29.1499 66.3586L26.8039 64.8505C26.8039 65.018 26.8039 65.1856 26.8039 65.1856L28.8148 66.5262L26.4688 68.0343C26.4688 68.2019 26.4688 68.3695 26.4688 68.5371L29.1499 66.6938L31.4959 68.5371Z" fill="#A8A9AC"/>
<path d="M30.4905 56.9746C30.4905 56.807 30.4905 56.6394 30.4905 56.4719L29.1499 55.4664L30.3229 54.461C30.3229 54.2934 30.3229 54.1259 30.3229 54.1259L28.8148 55.2989L27.3066 54.1259C27.3066 54.2934 27.3066 54.461 27.3066 54.461L28.6472 55.4664L27.3066 56.4719C27.3066 56.6394 27.3066 56.807 27.3066 56.9746L28.9824 55.634L30.4905 56.9746Z" fill="#A8A9AC"/>
<path d="M20.4355 94.5109H14.2354V96.1866H20.4355V94.5109Z" fill="#676361"/>
<path d="M43.3935 94.5109H37.1934V96.1866H43.3935V94.5109Z" fill="#676361"/>
<path d="M25.4635 71.2182H26.1338L25.7986 69.3749H25.2959L25.4635 71.2182Z" fill="#1F1715"/>
<path d="M26.6363 71.2182H27.3066L27.139 69.3749H26.4688L26.6363 71.2182Z" fill="#1F1715"/>
<path d="M27.9771 71.2182H28.4799V69.3749H27.8096L27.9771 71.2182Z" fill="#1F1715"/>
<path d="M29.1504 71.2182H29.6531V69.3749H29.1504V71.2182Z" fill="#1F1715"/>
<path d="M30.3232 71.2182H30.826L30.9935 69.3749H30.4908L30.3232 71.2182Z" fill="#1F1715"/>
<path d="M31.6637 69.3749L31.4961 71.2182H31.9988L32.334 69.3749H31.6637Z" fill="#1F1715"/>
<path d="M28.6472 48.7635H27.3066V49.2663H28.6472V48.7635Z" fill="#1F1715"/>
<path d="M30.322 48.7635H28.9814V49.2663H30.322V48.7635Z" fill="#1F1715"/>
<path d="M28.6472 49.6014H27.3066V50.1041H28.6472V49.6014Z" fill="#1F1715"/>
<path d="M30.322 49.6014H28.9814V50.1041H30.322V49.6014Z" fill="#1F1715"/>
<path d="M28.6472 50.4393H27.3066V50.9421H28.6472V50.4393Z" fill="#1F1715"/>
<path d="M30.322 50.4393H28.9814V50.9421H30.322V50.4393Z" fill="#1F1715"/>
<path d="M195.046 65.5209H182.98V94.5109H195.046V65.5209Z" fill="#BA0135"/>
<path d="M195.884 68.8723H182.143V94.846H195.884V68.8723Z" fill="#FF2B55"/>
<path d="M194.041 70.7156H184.154V94.8461H194.041V70.7156Z" fill="#BA0135"/>
<path d="M193.538 71.0508H184.489V94.8461H193.538V71.0508Z" fill="#FF2B55"/>
<path d="M192.533 72.5589H185.662V89.8189H192.533V72.5589Z" fill="#DEDEDE"/>
<path d="M188.009 72.5589H187.506V89.8189H188.009V72.5589Z" fill="#FF2B55"/>
<path d="M190.521 72.5589H190.019V89.8189H190.521V72.5589Z" fill="#FF2B55"/>
<path d="M192.533 74.905H185.662V75.4077H192.533V74.905Z" fill="#FF2B55"/>
<path d="M192.533 77.9212H185.662V78.4239H192.533V77.9212Z" fill="#FF2B55"/>
<path d="M192.533 80.9376H185.662V81.4403H192.533V80.9376Z" fill="#FF2B55"/>
<path d="M192.533 83.9539H185.662V84.4566H192.533V83.9539Z" fill="#FF2B55"/>
<path d="M192.533 86.9702H185.662V87.4729H192.533V86.9702Z" fill="#FF2B55"/>
<path d="M193.371 81.9429C193.371 82.1105 193.203 82.2781 193.035 82.2781C192.868 82.2781 192.7 82.1105 192.7 81.9429C192.7 81.7754 192.868 81.6078 193.035 81.6078C193.203 81.4402 193.371 81.6078 193.371 81.9429Z" fill="#FFCC33"/>
<path d="M184.489 74.0671H183.818V76.0779H184.489V74.0671Z" fill="#FFCC33"/>
<path d="M184.489 81.2727H183.818V83.2836H184.489V81.2727Z" fill="#FFCC33"/>
<path d="M184.489 88.4783H183.818V90.4892H184.489V88.4783Z" fill="#FFCC33"/>
<path d="M194.208 66.1912H183.818V68.0345H194.208V66.1912Z" fill="#DEDEDE"/>
<path d="M185.327 67.0291C185.16 66.6939 185.16 66.6939 184.992 66.6939V67.6993H185.16H184.657H184.824V66.6939C184.657 66.6939 184.657 66.8615 184.489 67.0291V66.6939H185.495L185.327 67.0291Z" fill="#382040"/>
<path d="M186.165 66.6939V67.0291C185.997 66.8615 185.997 66.6939 185.83 66.6939V67.1966C185.997 67.1966 185.997 67.0291 185.997 67.0291V67.5318C185.997 67.3642 185.83 67.3642 185.83 67.3642V67.8669C185.997 67.8669 186.165 67.6993 186.165 67.5318V67.8669H185.327H185.495V66.8615H185.327H186.165V66.6939Z" fill="#382040"/>
<path d="M187.003 66.6939H186.836V67.6993C187.003 67.6993 187.171 67.5318 187.171 67.3642V67.6993H186.333H186.501V66.6939H186.333H187.003Z" fill="#382040"/>
<path d="M188.176 66.6939V67.0291C188.008 66.8615 188.008 66.6939 187.841 66.6939V67.1966C188.008 67.1966 188.008 67.0291 188.008 67.0291V67.5318C188.008 67.3642 187.841 67.3642 187.841 67.3642V67.8669C188.008 67.8669 188.176 67.6993 188.176 67.5318V67.8669H187.338H187.505V66.8615H187.338H188.176V66.6939Z" fill="#382040"/>
<path d="M188.846 66.6939C189.182 66.6939 189.349 66.6939 189.349 67.0291C189.349 67.3642 189.182 67.3642 188.846 67.3642V67.8669H189.014H188.344H188.511V66.8615H188.344H188.846V66.6939ZM188.679 67.1966C188.846 67.1966 188.846 67.0291 188.846 66.8615C188.846 66.6939 188.846 66.6939 188.679 66.6939V67.1966Z" fill="#382040"/>
<path d="M189.852 66.6939L189.684 67.1966H190.019V66.6939H189.852H190.522H190.354V67.6993H190.522H190.019H190.187V67.1966H189.852V67.6993H190.019H189.517H189.684V66.6939H189.517H189.852Z" fill="#382040"/>
<path d="M191.192 66.6939C191.527 66.6939 191.695 66.8615 191.695 67.1966C191.695 67.5318 191.527 67.6993 191.192 67.6993C190.857 67.6993 190.689 67.5318 190.689 67.1966C190.522 66.8615 190.857 66.6939 191.192 66.6939ZM191.359 67.1966C191.359 66.8615 191.359 66.6939 191.192 66.6939C191.024 66.6939 191.024 66.8615 191.024 67.1966V67.3642C191.024 67.6993 191.024 67.8669 191.192 67.8669C191.359 67.6993 191.359 67.5318 191.359 67.1966Z" fill="#382040"/>
<path d="M192.701 67.6993H192.533L192.03 66.6939V67.6993H192.198H192.03H192.198V66.6939H192.03H192.533L193.036 67.5318V66.6939H192.868H193.036H192.868V67.6993H192.701Z" fill="#382040"/>
<path d="M193.706 66.6939V67.0291C193.538 66.8615 193.538 66.6939 193.371 66.6939V67.1966C193.538 67.1966 193.538 67.0291 193.538 67.0291V67.5318C193.538 67.3642 193.371 67.3642 193.371 67.3642V67.8669C193.538 67.8669 193.706 67.6993 193.706 67.5318V67.8669H192.868H193.036V66.8615H192.868H193.706V66.6939Z" fill="#382040"/>
<path d="M189.014 61.3315C184.992 61.3315 181.641 63.0073 181.641 64.5154V65.5209H196.387V64.5154C196.387 63.0073 193.036 61.3315 189.014 61.3315Z" fill="#FF2B55"/>
<path d="M189.852 63.51L189.684 62.6721L189.349 63.3424L189.014 62.6721L188.679 63.3424L188.344 62.6721L188.176 63.51L187.506 63.0073C187.506 63.0073 187.841 63.8451 187.841 64.8506H189.852C189.852 63.8451 190.187 63.0073 190.187 63.0073L189.852 63.51Z" fill="#BA0135"/>
<path d="M188.009 64.5155C188.009 64.6831 188.009 64.6831 188.009 64.8506H190.02C190.02 64.6831 190.02 64.6831 190.02 64.5155H188.009Z" fill="#BA0135"/>
<path d="M189.182 62.6722C189.182 62.8397 189.014 62.8397 189.014 62.8397C188.847 62.8397 188.847 62.6722 188.847 62.6722L189.014 62.5046C189.182 62.5046 189.182 62.5046 189.182 62.6722Z" fill="#BA0135"/>
<path d="M189.852 62.8397C189.852 63.0073 189.684 63.0073 189.684 63.0073C189.517 63.0073 189.517 62.8397 189.517 62.8397C189.517 62.6721 189.684 62.6721 189.684 62.6721C189.852 62.5046 189.852 62.6721 189.852 62.8397Z" fill="#BA0135"/>
<path d="M190.523 63.0072C190.523 63.1748 190.355 63.1748 190.355 63.1748C190.188 63.1748 190.188 63.0072 190.188 63.0072C190.188 62.8397 190.355 62.8397 190.355 62.8397C190.523 62.6721 190.523 62.8397 190.523 63.0072Z" fill="#BA0135"/>
<path d="M188.176 62.8397C188.176 63.0073 188.343 63.0073 188.343 63.0073L188.511 62.8397C188.511 62.6721 188.343 62.6721 188.343 62.6721C188.343 62.6721 188.176 62.6721 188.176 62.8397Z" fill="#BA0135"/>
<path d="M187.506 63.0072C187.506 63.1748 187.673 63.1748 187.673 63.1748C187.841 63.1748 187.841 63.0072 187.841 63.0072C187.841 62.8397 187.673 62.8397 187.673 62.8397C187.506 62.6721 187.506 62.8397 187.506 63.0072Z" fill="#BA0135"/>
<path d="M196.554 94.5109H181.473V95.5164H196.554V94.5109Z" fill="#68282E"/>
<path d="M185.159 138.918C185.159 139.923 184.321 140.761 183.316 140.761C182.311 140.761 181.473 139.923 181.473 138.918C181.473 137.912 182.311 137.074 183.316 137.074C184.321 137.074 185.159 137.912 185.159 138.918Z" fill="#CCCCCC"/>
<path d="M190.355 138.918C190.355 139.923 189.517 140.761 188.511 140.761C187.506 140.761 186.668 139.923 186.668 138.918C186.668 137.912 187.506 137.074 188.511 137.074C189.517 137.074 190.355 137.912 190.355 138.918Z" fill="#CCCCCC"/>
<path d="M195.716 138.918C195.716 139.923 194.878 140.761 193.873 140.761C192.867 140.761 192.029 139.923 192.029 138.918C192.029 137.912 192.867 137.074 193.873 137.074C194.878 137.074 195.716 137.912 195.716 138.918Z" fill="#CCCCCC"/>
<path d="M145.948 175.281H69.0322V185H145.948V175.281Z" fill="#382040"/>
<path d="M70.7075 103.392H26.3008V127.69H70.7075V103.392Z" fill="#FFCC33"/>
<path d="M190.69 109.425H73.5566V111.771H190.69V109.425Z" fill="#999999"/>
<path d="M190.69 114.452H73.5566V116.798H190.69V114.452Z" fill="#999999"/>
<path d="M190.69 119.479H73.5566V121.825H190.69V119.479Z" fill="#999999"/>
<path d="M190.69 124.506H73.5566V126.852H190.69V124.506Z" fill="#999999"/>
<path d="M150.807 118.139H101.708C93.4972 118.139 86.9619 111.603 86.9619 103.392V103.057C86.9619 94.8461 93.4972 88.3107 101.708 88.3107H150.807C159.018 88.3107 165.553 94.8461 165.553 103.057V103.392C165.553 111.603 158.85 118.139 150.807 118.139Z" fill="#FF2B55"/>
<path d="M108.914 101.046V101.214H105.897C105.897 100.711 105.562 100.208 104.557 100.208C103.719 100.208 103.216 100.544 103.216 100.879C103.216 102.387 109.249 101.214 109.249 105.068C109.249 107.582 107.238 108.587 104.724 108.587C101.876 108.587 99.6973 107.917 99.6973 104.9H102.881C102.881 106.073 103.551 106.241 104.557 106.241C105.227 106.241 106.065 106.241 106.065 105.571C106.065 104.063 100.032 105.236 100.032 101.214C100.032 98.8678 102.211 97.8624 104.724 97.8624C106.735 98.0299 108.746 98.8678 108.914 101.046Z" fill="white"/>
<path d="M119.973 100.711H116.622V108.419H113.27V100.711H109.919V98.03H119.973V100.711Z" fill="white"/>
<path d="M130.866 108.419H127.347L126.844 106.911H123.325L122.822 108.419H119.471L123.157 98.1976H127.011L130.866 108.419ZM125.168 101.046L123.995 104.733H126.174L125.168 101.046Z" fill="white"/>
<path d="M139.914 104.063L142.26 108.419H138.406L136.731 104.733H135.558V108.419H132.206V98.1976H138.574C140.92 98.1976 142.093 99.7057 142.093 101.381C141.925 102.554 141.255 103.56 139.914 104.063ZM137.568 100.544H135.39V102.387H137.568C138.071 102.387 138.574 102.052 138.574 101.381C138.574 100.879 138.071 100.544 137.568 100.544Z" fill="white"/>
<path d="M152.818 100.711H149.467V108.419H146.115V100.711H142.764V98.03H152.818V100.711Z" fill="white"/>
<path d="M166.056 109.09L153.32 104.9L151.31 117.468L157.007 114.284L160.358 124.004L167.564 119.982L160.023 112.441L166.056 109.09Z" fill="white"/>
</svg>
