<svg width="88" height="121" viewBox="0 0 88 121" fill="none" xmlns="http://www.w3.org/2000/svg">
<path d="M67.1246 34.1001H47.2598C46.5011 34.1001 46.0804 34.6885 46.0804 35.2792C46.0804 35.8677 46.5011 36.4584 47.2598 36.4584H51.5527V57.1694C48.0157 58.6006 44.1458 59.2734 40.0205 59.2734C34.2131 59.2734 29.0772 57.9261 24.8687 55.4857V6.14791C29.0772 3.70557 34.2131 2.35824 39.9367 2.35824H40.0205C46.6693 2.35824 58.0327 4.3781 58.0327 13.4728V15.0722C58.0327 15.9126 58.707 16.3351 59.2953 16.3351C59.8858 16.3351 60.5585 15.9126 60.5585 15.0722V1.26322C60.5585 0.506591 59.8858 0.0840446 59.2953 0.0840446C58.707 0.0840446 58.0327 0.506591 58.0327 1.26322V6.40011C53.9918 1.59946 45.9129 0 40.0205 0H39.9367C21.7547 0 9.55048 12.3776 9.55048 30.817C9.55048 49.2537 21.7547 61.6316 40.0205 61.6316C49.7012 61.6316 58.5389 58.0099 64.1787 50.601C64.515 50.097 64.6832 49.6768 64.6832 49.0861V36.4584H67.1246C67.9654 36.4584 68.3855 35.8677 68.3855 35.2792C68.3855 34.6885 67.9654 34.1001 67.1246 34.1001Z" fill="#FFD41D"/>
<path d="M46.0935 35.3121H47.4603" stroke="white" stroke-width="3.67194" stroke-linecap="round"/>
<path d="M64.2331 55.676L39.1792 25.9743C41.6251 24.2022 44.9979 23.1046 49.2183 23.1046C55.8818 23.1046 62.2095 28.0006 62.2095 32.8944V34.2434C62.2095 34.9185 62.8 35.5092 63.4744 35.5092C64.1493 35.5092 64.7398 34.9185 64.7398 34.2434V21.8394C64.7398 21.1649 64.1493 20.658 63.4744 20.658C62.8 20.658 62.2095 21.1649 62.2095 21.8394V26.4806C59.2568 22.937 54.1945 20.5742 49.2183 20.5742C38.8406 20.5742 32.5134 26.565 32.5134 34.2434C32.5134 38.2101 34.3688 42.5969 37.912 46.8162L61.7028 75.1683C58.9182 77.8698 54.785 79.6419 49.7222 79.6419C41.2871 79.6419 33.7783 74.3256 33.7783 68.4187V66.0559C33.7783 65.3814 33.1878 64.8745 32.5134 64.8745C31.8385 64.8745 31.248 65.3814 31.248 66.0559V80.9071C31.248 81.5816 31.8385 82.0885 32.5134 82.0885C33.1878 82.0885 33.7783 81.5816 33.7783 80.9071V75.2527C37.2371 79.5575 43.733 82.1723 49.7222 82.1723C60.858 82.1723 68.1986 74.4938 68.1986 66.0559C68.1986 62.5123 67.0176 58.9682 64.2331 55.676Z" fill="#FFD41D"/>
<path d="M45.6422 32.8831L57.7966 48.7406L61.4955 47.3247V34.2989L45.6422 32.8831Z" fill="#292929"/>
<path d="M45.6422 32.8831L45.6672 32.601L45.0257 32.5438L45.4175 33.0552L45.6422 32.8831ZM57.7966 48.7406L57.5719 48.9128L57.7004 49.0804L57.8974 49.0051L57.7966 48.7406ZM61.4955 47.3247L61.5969 47.5892L61.7786 47.5196V47.3247H61.4955ZM61.4955 34.2989H61.7786V34.0401L61.5205 34.0169L61.4955 34.2989ZM45.4175 33.0552L57.5719 48.9128L58.0208 48.5684L45.867 32.7109L45.4175 33.0552ZM57.8974 49.0051L61.5969 47.5892L61.3942 47.0603L57.6953 48.4761L57.8974 49.0051ZM61.7786 47.3247V34.2989H61.2125V47.3247H61.7786ZM61.5205 34.0169L45.6672 32.601L45.6173 33.1651L61.4706 34.581L61.5205 34.0169Z" fill="#292929"/>
<path d="M65.4589 35.7148V32.8831H69.1391V35.7148H65.4589Z" fill="#292929" stroke="#292929"/>
<path d="M64.8927 36.8475V34.0157H65.4589V36.8475H64.8927Z" fill="#292929" stroke="#292929" stroke-width="0.5"/>
<path d="M64.8927 36.8474C64.8927 48.4574 64.8927 22.4057 64.8927 21.8394C64.8927 21.273 64.8655 20.9898 64.6096 20.7067C64.3537 20.4235 64.1419 19.8651 63.4772 20.4235" stroke="#292929" stroke-width="0.8"/>
<path d="M62.0617 33.7325V47.3247L57.8153 49.0237L45.9253 33.7325L39.9803 26.3701" stroke="#292929" stroke-width="0.8"/>
<path d="M62.0617 34.0157C62.0844 30.77 61.1281 29.0353 57.8153 26.0869" stroke="#292929" stroke-width="0.8"/>
<path d="M61.7786 47.3247V33.7325" stroke="#292929" stroke-width="0.8"/>
<path d="M57.8153 49.0238L60.6463 51.8555L62.0617 50.7228V46.7584L58.0984 49.0238" stroke="#292929" stroke-width="0.8"/>
<path d="M58.2105 48.8918L62.0617 47.6079V50.7228L60.6463 51.5723L58.2105 48.8918Z" fill="#292929"/>
<path d="M62.0617 47.6079H62.2882V47.2936L61.9904 47.3933L62.0617 47.6079ZM62.0617 50.7228L62.1783 50.917L62.2882 50.8508V50.7228H62.0617ZM60.6462 51.5723L60.4786 51.7246L60.6038 51.8622L60.7629 51.7665L60.6462 51.5723ZM61.8352 47.6079V50.7228H62.2882V47.6079H61.8352ZM61.9451 50.5285L60.5296 51.378L60.7629 51.7665L62.1783 50.917L61.9451 50.5285ZM58.2818 49.107L62.1331 47.8225L61.9904 47.3933L58.1386 48.6771L58.2818 49.107ZM60.8138 51.4199L58.3781 48.7394L58.0429 49.0447L60.4786 51.7246L60.8138 51.4199ZM58.3781 48.7394L57.9829 48.3051L57.6477 48.6097L58.0429 49.0447L58.3781 48.7394ZM57.8866 49.2384L58.2818 49.107L58.1386 48.6771L57.744 48.8091L57.8866 49.2384Z" fill="#292929"/>
<path d="M65.4589 37.4137V35.7147H68.856V37.4137H65.4589Z" fill="#292929" stroke="#292929" stroke-width="0.8"/>
<path d="M8.12369 107.616V110.711C7.33159 111.253 6.34981 111.576 5.42523 111.576C3.07894 111.576 1.18787 109.771 1.18787 107.498C1.18787 105.24 3.06535 103.435 5.4122 103.435C6.55534 103.435 7.68319 103.875 8.51945 104.623L9.19378 103.742C8.21201 102.877 6.83391 102.335 5.4122 102.335C2.39102 102.335 0 104.61 0 107.498C0 110.388 2.37516 112.691 5.35219 112.691C6.73029 112.691 8.15256 112.147 9.16547 111.342V107.616H8.12369Z" fill="white"/>
<path d="M19.3507 102.335C16.3448 102.335 13.9696 104.594 13.9696 107.498C13.9696 110.388 16.3448 112.691 19.3507 112.691C22.343 112.691 24.7187 110.388 24.7187 107.498C24.7187 104.61 22.343 102.335 19.3507 102.335ZM19.3507 103.45C21.6398 103.45 23.5156 105.24 23.5156 107.498C23.5156 109.758 21.6398 111.56 19.3507 111.56C17.0638 111.56 15.1575 109.758 15.1575 107.498C15.1575 105.24 17.0638 103.45 19.3507 103.45Z" fill="white"/>
<path d="M32.8379 102.32C30.7101 102.32 29.2879 103.362 29.2879 104.974C29.2879 108.655 35.0647 107.22 35.0517 109.917C35.0517 110.901 34.1271 111.503 32.6476 111.503C31.4886 111.503 30.1836 110.974 29.2307 110.049L28.7018 111.107C29.6706 112.029 31.137 112.675 32.6323 112.675C34.8303 112.675 36.3409 111.576 36.3409 109.859C36.3567 106.134 30.5799 107.512 30.5799 104.873C30.5799 104.008 31.4445 103.508 32.7648 103.508C33.5852 103.508 34.6689 103.758 35.5935 104.373L36.0934 103.274C35.2419 102.703 34.0252 102.32 32.8379 102.32Z" fill="white"/>
<path d="M41.6761 102.364V112.631H42.8481V109.39H45.5313C48.0678 109.39 49.5342 108.085 49.5342 105.811C49.5342 103.625 48.0678 102.364 45.5313 102.364H41.6761ZM42.8481 103.494H45.4871C47.3357 103.494 48.4064 104.287 48.4064 105.84C48.4064 107.439 47.3357 108.26 45.4871 108.26H42.8481V103.494Z" fill="white"/>
<path d="M61.3795 103.494V102.364H54.4148V112.631H61.5697V111.516H55.5868V107.996H60.7623V106.868H55.5868V103.494H61.3795Z" fill="white"/>
<path d="M73.3849 110.036L74.5281 112.631H75.8043L71.2153 102.364H69.9963L65.3937 112.631H66.6394L67.7825 110.036H73.3849ZM72.885 108.906H68.2824L70.5693 103.698L72.885 108.906Z" fill="white"/>
<path d="M86.5624 112.81H88L83.6301 107.003L87.6931 102.543H86.2997L80.7856 108.454V102.543H79.6136V112.81H80.7856V110.127L82.7808 107.941L86.5624 112.81Z" fill="white"/>
<path d="M30.3546 120.982C31.1421 120.982 31.7525 120.558 31.7525 119.81C31.7525 118.984 31.0515 118.819 30.4276 118.666C29.9192 118.549 29.4611 118.434 29.4611 118.005C29.4611 117.624 29.8218 117.399 30.3036 117.399C30.786 117.399 31.1467 117.653 31.1467 118.095H31.6398C31.6398 117.376 31.1353 116.923 30.3149 116.923C29.4945 116.923 28.968 117.336 28.968 118.02C28.968 118.814 29.6423 118.978 30.2526 119.12C30.7684 119.244 31.2372 119.352 31.2372 119.816C31.2372 120.235 30.8477 120.495 30.3478 120.495C29.7997 120.495 29.3994 120.206 29.3994 119.715H28.8881C28.8881 120.495 29.4832 120.982 30.3546 120.982Z" fill="white"/>
<path d="M32.5508 120.931H33.0485V116.967H32.5508V120.931Z" fill="white"/>
<path d="M36.8012 116.967V120.026L34.5828 116.967H34.1293V120.931H34.6163V117.841L36.8697 120.931H37.2875V116.967H36.8012Z" fill="white"/>
<path d="M40.1298 120.993C41.0629 120.993 41.7995 120.434 42.0249 119.538H41.5232C41.3126 120.144 40.7974 120.507 40.1298 120.507C39.2471 120.507 38.6079 119.867 38.6079 118.956C38.6079 118.044 39.2471 117.392 40.1298 117.392C40.7798 117.392 41.2905 117.739 41.4989 118.31H42.0096C41.782 117.456 41.0476 116.912 40.1298 116.912C38.9527 116.912 38.0972 117.766 38.0972 118.956C38.0972 120.14 38.9527 120.993 40.1298 120.993Z" fill="white"/>
<path d="M43.258 120.456V119.126H44.8546V118.666H43.258V117.443H45.003V116.967H42.7603V120.931H45.0653V120.456H43.258Z" fill="white"/>
<path d="M47.9568 120.489C49.2307 119.098 49.4232 118.713 49.4232 118.19C49.4232 117.551 48.959 117.104 48.2846 117.104C47.6012 117.104 47.1256 117.533 47.1256 118.197V118.288H47.5876V118.197C47.5876 117.812 47.8707 117.546 48.2846 117.546C48.6872 117.546 48.9522 117.805 48.9522 118.19C48.9522 118.655 48.7557 118.978 47.039 120.783V120.931H49.5693V120.489H47.9568Z" fill="white"/>
<path d="M51.5674 121C52.4569 121 53.0163 120.246 53.0163 119.051C53.0163 117.845 52.4614 117.104 51.5674 117.104C50.6677 117.104 50.1078 117.845 50.1078 119.051C50.1078 120.246 50.6739 121 51.5674 121ZM51.5674 120.558C50.9508 120.558 50.5834 119.991 50.5834 119.051C50.5834 118.111 50.957 117.546 51.5674 117.546C52.1738 117.546 52.5475 118.111 52.5475 119.051C52.5475 119.991 52.1738 120.558 51.5674 120.558Z" fill="white"/>
<path d="M54.4487 120.489C55.7227 119.098 55.9152 118.713 55.9152 118.19C55.9152 117.551 55.4509 117.104 54.7766 117.104C54.0932 117.104 53.6176 117.533 53.6176 118.197V118.288H54.0796V118.197C54.0796 117.812 54.3627 117.546 54.7766 117.546C55.1791 117.546 55.4441 117.805 55.4441 118.19C55.4441 118.655 55.2476 118.978 53.5309 120.783V120.931H56.0612V120.489H54.4487Z" fill="white"/>
<path d="M58.0593 121C58.9488 121 59.5082 120.246 59.5082 119.051C59.5082 117.845 58.9534 117.104 58.0593 117.104C57.1597 117.104 56.5997 117.845 56.5997 119.051C56.5997 120.246 57.1659 121 58.0593 121ZM58.0593 120.558C57.4428 120.558 57.0753 119.991 57.0753 119.051C57.0753 118.111 57.449 117.546 58.0593 117.546C58.6657 117.546 59.0394 118.111 59.0394 119.051C59.0394 119.991 58.6657 120.558 58.0593 120.558Z" fill="white"/>
</svg>
