<svg width="44" height="58" viewBox="0 0 44 58" fill="none" xmlns="http://www.w3.org/2000/svg">
<path d="M41.5463 24.069H27.2116C26.6641 24.069 26.3605 24.4844 26.3605 24.9013C26.3605 25.3166 26.6641 25.7336 27.2116 25.7336H30.3094V40.3521C27.757 41.3623 24.9644 41.8372 21.9876 41.8372C17.7969 41.8372 14.0908 40.8862 11.0539 39.1637V4.33941C14.0908 2.61552 17.7969 1.66453 21.9271 1.66453H21.9876C26.7854 1.66453 34.9854 3.09021 34.9854 9.5096V10.6385C34.9854 11.2317 35.472 11.5299 35.8965 11.5299C36.3227 11.5299 36.8081 11.2317 36.8081 10.6385V0.891626C36.8081 0.35757 36.3227 0.0593216 35.8965 0.0593216C35.472 0.0593216 34.9854 0.35757 34.9854 0.891626V4.51741C32.0695 1.12896 26.2396 0 21.9876 0H21.9271C8.80673 0 0 8.7365 0 21.7517C0 34.7649 8.80673 43.5017 21.9876 43.5017C28.9733 43.5017 35.3507 40.9454 39.4205 35.7159C39.6632 35.3602 39.7845 35.0635 39.7845 34.6466V25.7336H41.5463C42.153 25.7336 42.4561 25.3166 42.4561 24.9013C42.4561 24.4844 42.153 24.069 41.5463 24.069Z" fill="#FFDC00"/>
<path d="M26.3699 24.9248H27.3562" stroke="#FFDC00" stroke-width="3.67194" stroke-linecap="round"/>
<path d="M39.4597 39.298L21.3805 18.3335C23.1455 17.0827 25.5793 16.308 28.6248 16.308C33.4333 16.308 37.9995 19.7638 37.9995 23.218V24.1702C37.9995 24.6467 38.4256 25.0636 38.9122 25.0636C39.3992 25.0636 39.8254 24.6467 39.8254 24.1702V15.415C39.8254 14.9389 39.3992 14.5811 38.9122 14.5811C38.4256 14.5811 37.9995 14.9389 37.9995 15.415V18.6909C35.8688 16.1897 32.2158 14.522 28.6248 14.522C21.1361 14.522 16.5704 18.7504 16.5704 24.1702C16.5704 26.97 17.9093 30.0664 20.4661 33.0445L37.6338 53.0564C35.6245 54.9631 32.6419 56.2139 28.9885 56.2139C22.9016 56.2139 17.4831 52.4616 17.4831 48.2922V46.6245C17.4831 46.1484 17.057 45.7906 16.5704 45.7906C16.0834 45.7906 15.6572 46.1484 15.6572 46.6245V57.107C15.6572 57.5831 16.0834 57.9408 16.5704 57.9408C17.057 57.9408 17.4831 57.5831 17.4831 57.107V53.1159C19.9791 56.1544 24.6666 58 28.9885 58C37.0242 58 42.3213 52.5803 42.3213 46.6245C42.3213 44.1233 41.4691 41.6217 39.4597 39.298Z" fill="#FFDC00"/>
<path d="M26.0443 23.2097L34.8151 34.4025L37.4843 33.4032V24.2091L26.0443 23.2097Z" fill="#F8F8F8"/>
<path d="M26.0442 23.2101L26.0622 23.0111L25.5993 22.9707L25.882 23.3317L26.0442 23.2101ZM34.815 34.4029L34.6528 34.5245L34.7455 34.6428L34.8877 34.5896L34.815 34.4029ZM37.4842 33.4036L37.5573 33.5903L37.6885 33.5411V33.4036H37.4842ZM37.4842 24.2095H37.6885V24.0268L37.5022 24.0104L37.4842 24.2095ZM25.882 23.3317L34.6528 34.5245L34.9768 34.2814L26.2064 23.0886L25.882 23.3317ZM34.8877 34.5896L37.5573 33.5903L37.4111 33.2169L34.7419 34.2163L34.8877 34.5896ZM37.6885 33.4036V24.2095H37.2799V33.4036H37.6885ZM37.5022 24.0104L26.0622 23.0111L26.0263 23.4092L37.4662 24.4086L37.5022 24.0104Z" fill="#F8F8F8"/>
<path d="M40.3443 25.2084V23.2097H43V25.2084H40.3443Z" fill="#F8F8F8" stroke="#F8F8F8"/>
<path d="M39.9356 26.008V24.0093H40.3442V26.008H39.9356Z" fill="#F8F8F8" stroke="#F8F8F8" stroke-width="0.5"/>
<path d="M39.9357 26.0082C39.9357 34.2029 39.9357 15.8147 39.9357 15.415C39.9357 15.0152 39.9161 14.8154 39.7314 14.6155C39.5467 14.4156 39.3939 14.0215 38.9143 14.4156" stroke="#F8F8F8" stroke-width="0.8"/>
<path d="M37.8927 23.8097V33.4035L34.8284 34.6027L26.2485 23.8097L21.9585 18.613" stroke="#F8F8F8" stroke-width="0.8"/>
<path d="M37.8927 24.0095C37.9091 21.7186 37.219 20.4941 34.8284 18.4131" stroke="#F8F8F8" stroke-width="0.8"/>
<path d="M37.6884 33.4034V23.8096" stroke="#F8F8F8" stroke-width="0.8"/>
<path d="M34.8284 34.6029L36.8713 36.6016L37.8927 35.8021V33.0039L35.0327 34.6029" stroke="#F8F8F8" stroke-width="0.8"/>
<path d="M35.1136 34.5092L37.8927 33.603V35.8016L36.8713 36.4012L35.1136 34.5092Z" fill="#F8F8F8"/>
<path d="M37.8928 33.6034H38.0562V33.3816L37.8413 33.4519L37.8928 33.6034ZM37.8928 35.802L37.977 35.9391L38.0562 35.8924V35.802H37.8928ZM36.8714 36.4016L36.7504 36.5092L36.8407 36.6063L36.9555 36.5388L36.8714 36.4016ZM37.7294 33.6034V35.802H38.0562V33.6034H37.7294ZM37.8086 35.6649L36.7872 36.2645L36.9555 36.5388L37.977 35.9391L37.8086 35.6649ZM35.1652 34.6616L37.9443 33.7549L37.8413 33.4519L35.0618 34.3582L35.1652 34.6616ZM36.9923 36.2941L35.2346 34.4021L34.9928 34.6176L36.7504 36.5092L36.9923 36.2941ZM35.2346 34.4021L34.9495 34.0955L34.7076 34.3106L34.9928 34.6176L35.2346 34.4021ZM34.88 34.7543L35.1652 34.6616L35.0618 34.3582L34.777 34.4513L34.88 34.7543Z" fill="#F8F8F8"/>
<path d="M40.3443 26.408V25.2087H42.7957V26.408H40.3443Z" fill="#F8F8F8" stroke="#F8F8F8" stroke-width="0.8"/>
</svg>
