<svg width="41" height="40" viewBox="0 0 41 40" fill="none" xmlns="http://www.w3.org/2000/svg">
<circle cx="20.5" cy="20" r="19.5" stroke="#FFD41D"/>
<path d="M30.5 23.9402C30.5 26.7302 28.26 28.9902 25.47 29.0002H25.46H15.55C12.77 29.0002 10.5 26.7502 10.5 23.9602V23.9502C10.5 23.9502 10.506 19.5242 10.514 17.2982C10.515 16.8802 10.995 16.6462 11.322 16.9062C13.698 18.7912 17.947 22.2282 18 22.2732C18.71 22.8422 19.61 23.1632 20.53 23.1632C21.45 23.1632 22.35 22.8422 23.06 22.2622C23.113 22.2272 27.267 18.8932 29.679 16.9772C30.007 16.7162 30.489 16.9502 30.49 17.3672C30.5 19.5762 30.5 23.9402 30.5 23.9402Z" fill="#292929"/>
<path d="M29.9759 13.6736C29.1099 12.0416 27.4059 10.9996 25.5299 10.9996H15.5499C13.6739 10.9996 11.9699 12.0416 11.1039 13.6736C10.9099 14.0386 11.0019 14.4936 11.3249 14.7516L18.7499 20.6906C19.2699 21.1106 19.8999 21.3196 20.5299 21.3196C20.5339 21.3196 20.5369 21.3196 20.5399 21.3196C20.5429 21.3196 20.5469 21.3196 20.5499 21.3196C21.1799 21.3196 21.8099 21.1106 22.3299 20.6906L29.7549 14.7516C30.0779 14.4936 30.1699 14.0386 29.9759 13.6736Z" fill="#292929"/>
</svg>
