<svg width="148" height="148" viewBox="0 0 148 148" fill="none" xmlns="http://www.w3.org/2000/svg">
<path fill-rule="evenodd" clip-rule="evenodd" d="M101.906 18.5003L45.98 18.5C26.4345 18.5 12.3335 34.296 12.3335 54.6303V93.3697C12.3335 113.704 26.4345 129.5 45.98 129.5H101.854C111.242 129.395 120.128 125.443 126.494 118.564C132.861 111.685 136.152 102.479 135.601 93.0917L135.609 54.6303C136.152 45.5205 132.861 36.3152 126.494 29.4362C120.128 22.5573 111.242 18.6051 101.906 18.5003ZM45.98 27.9253L101.802 27.925C108.578 28.0011 115.028 30.8698 119.649 35.863C124.271 40.8562 126.659 47.538 126.26 54.3523L126.251 93.3697C126.659 100.462 124.271 107.144 119.649 112.137C115.028 117.13 108.578 119.999 101.802 120.075L45.98 120.075C31.8374 120.075 21.691 108.709 21.691 93.3697V54.6303C21.691 39.2912 31.8374 27.9253 45.98 27.9253ZM111.148 53.2699C109.534 51.238 106.589 50.9092 104.572 52.5357L79.2929 72.9162L78.5684 73.4254C75.5879 75.2922 71.674 75.1198 68.819 72.8784L43.3553 52.5234L42.7822 52.1305C40.8072 50.9815 38.2422 51.4319 36.7819 53.2853C35.1756 55.324 35.5142 58.2883 37.5383 59.9063L63.0342 80.2868L64.0289 81.0148C70.4425 85.3829 78.9418 85.1415 85.093 80.3123L110.419 59.8941L110.927 59.419C112.48 57.7361 112.616 55.1172 111.148 53.2699Z" fill="#FFD41D"/>
</svg>
