<svg width="130" height="200" viewBox="0 0 130 200" fill="none" xmlns="http://www.w3.org/2000/svg">
<path d="M111.635 100.653C111.635 100.653 136.164 162.454 127.805 176.431C125.476 180.268 115.061 184.516 111.91 180.816C104.51 171.772 92.1771 138.747 92.1771 138.747C92.1771 138.747 94.9177 107.641 111.635 100.653Z" fill="#1EB1FA"/>
<path d="M89.5733 93.8013C86.1476 93.2532 83.1329 92.8421 80.3923 92.705C77.2406 92.568 74.9111 89.9644 74.9111 86.9497V73.5208H54.7676V86.9497C54.7676 89.9644 52.438 92.568 49.4234 92.705C46.9568 92.8421 44.3532 93.1161 41.4756 93.6642L41.2015 120.933H89.8474L89.5733 93.8013Z" fill="#FBA489"/>
<path d="M17.9064 100.653C17.9064 100.653 -6.62206 162.454 1.7368 176.431C4.06632 180.268 14.4807 184.516 17.6324 180.816C25.032 171.772 37.3647 138.747 37.3647 138.747C37.3647 138.747 34.7612 107.641 17.9064 100.653Z" fill="#1EB1FA"/>
<path d="M54.7676 85.3055C57.9193 86.8128 61.2081 87.772 64.7709 87.772C68.3337 87.772 71.7594 86.8128 74.7741 85.3055V69.4099H54.6306V85.3055H54.7676Z" fill="#F1856A"/>
<path d="M47.7787 53.2403C47.7787 58.0364 44.2159 61.8733 39.6939 61.8733C35.1719 61.8733 31.6091 54.0625 31.6091 49.2665C31.6091 44.4704 35.1719 43.7852 39.6939 44.4704C44.0789 45.2926 47.7787 48.4443 47.7787 53.2403Z" fill="#FBA489"/>
<path d="M81.8995 53.2403C81.8995 58.0364 85.4623 61.8733 89.9844 61.8733C94.5064 61.8733 98.0691 54.0625 98.0691 49.2665C98.0691 44.4704 94.5064 43.7852 89.9844 44.4704C85.4623 45.2926 81.8995 48.4443 81.8995 53.2403Z" fill="#FBA489"/>
<path d="M90.1217 29.1228C86.97 20.2158 64.771 19.8047 64.771 19.8047C64.771 19.8047 42.435 20.0788 39.4204 29.1228C36.2687 38.0298 36.6798 56.6659 41.3388 65.7099C45.9978 74.6169 54.6308 82.1536 64.9081 82.1536C75.1854 82.1536 83.8183 74.7539 88.4773 65.7099C92.9993 56.6659 93.2734 38.0298 90.1217 29.1228Z" fill="#FBA489"/>
<path d="M53.5343 49.1293C53.5343 51.1847 52.164 52.8291 50.6567 52.8291C49.0123 52.8291 47.7791 51.1847 47.7791 49.1293C47.7791 47.0738 49.1494 45.4294 50.6567 45.4294C52.3011 45.4294 53.5343 47.0738 53.5343 49.1293Z" fill="#391829"/>
<path d="M78.885 52.8291C80.4743 52.8291 81.7626 51.1726 81.7626 49.1293C81.7626 47.0859 80.4743 45.4294 78.885 45.4294C77.2957 45.4294 76.0073 47.0859 76.0073 49.1293C76.0073 51.1726 77.2957 52.8291 78.885 52.8291Z" fill="#391829"/>
<path d="M64.7709 69.4099C57.0972 69.4099 54.3566 64.0657 54.2196 63.9286C53.9455 63.3805 54.2196 62.5583 54.7677 62.2843C55.4529 62.0102 56.138 62.2843 56.4121 62.8324C56.5491 62.9694 58.6046 66.9433 64.6339 66.9433C70.8003 66.9433 72.8557 62.8324 72.8557 62.8324C73.1298 62.2843 73.952 62.0102 74.5001 62.2843C75.0482 62.5583 75.3223 63.3805 75.0482 63.9286C75.1852 64.0657 72.4446 69.4099 64.7709 69.4099Z" fill="#DB675C"/>
<path d="M46.2716 22.9565C47.7789 22.8194 49.2863 22.8194 50.7936 23.2305C52.1639 23.7786 53.5342 24.8749 53.8083 26.3822C54.2194 28.3007 52.9861 30.2191 51.7528 31.7264C49.9714 33.9189 48.19 36.2484 46.5457 38.4409C45.3124 40.0853 44.0791 41.5926 43.2569 43.511C42.5718 45.1554 42.2977 46.7998 42.1607 48.4441C41.8866 50.7737 41.7496 53.1032 41.8866 55.2957C41.8866 55.5697 41.8866 55.8438 41.7496 55.9808C41.6126 56.2549 41.3385 56.3919 41.0645 56.529C40.3793 56.94 39.5571 57.2141 38.872 57.6252C37.9128 53.3773 36.8165 39.9483 36.2684 38.4409C35.4462 35.8373 34.8981 32.9597 34.624 30.2191C34.624 29.671 34.487 28.9858 34.624 28.4377C34.8981 27.0674 36.1313 26.1082 37.3646 25.423C40.1052 23.9157 43.2569 23.3676 46.2716 22.9565Z" fill="#382040"/>
<path d="M78.1995 12.9534C78.0625 12.9534 77.9255 13.0904 77.7884 13.0904C77.3773 13.7755 78.0625 15.694 78.0625 16.3791C78.1995 17.2013 79.8439 22.8196 78.7476 23.2306C77.3773 23.7788 76.007 24.875 75.733 26.3823C75.3219 28.3008 76.5552 30.2192 77.7884 31.7265C79.5698 33.919 81.3512 36.2485 82.9956 38.441C84.2289 40.0854 85.4621 41.5927 86.2843 43.5112C86.9695 45.1555 87.2435 46.7999 87.3806 48.4443C87.6546 50.7738 87.7917 53.1033 87.6546 55.2958C87.6546 55.5699 87.6546 55.8439 87.7917 55.9809C87.9287 56.255 88.2028 56.392 88.4768 56.5291C89.162 56.9402 89.9842 57.2142 90.6693 57.6253V57.4883C91.7656 52.4182 92.0396 47.074 92.7248 42.0038C92.9988 39.4002 92.9988 36.9337 93.684 34.4671C94.9173 30.6303 96.0135 26.5194 95.4654 22.4085C95.1913 20.9011 94.7802 19.3938 93.958 18.1605C92.8618 16.5161 91.0804 15.4199 89.162 14.8718C87.2436 14.1866 85.3251 14.0496 83.4067 13.7755C82.5845 13.5015 79.4328 12.6793 78.1995 12.9534Z" fill="#382040"/>
<path d="M80.9403 9.66456C77.9257 6.2388 74.6369 2.676 70.389 1.03164C65.4559 -0.886791 59.8376 0.209453 54.7675 1.57976C51.8899 2.26491 49.0122 3.08709 46.6827 4.86849C44.2162 6.78692 42.5718 9.66456 40.3793 11.9941C38.1868 14.3236 35.0351 16.242 32.0204 15.2828C31.7464 17.7494 31.6094 20.2159 32.1575 22.6825C33.3907 28.0266 38.0498 32.1376 43.1199 33.919C48.3271 35.7004 53.9453 35.5633 59.4266 34.6041C64.7707 33.7819 70.1149 32.1376 74.3629 28.7118C78.0627 25.8342 80.5293 21.7232 82.3106 17.3383C82.9958 15.8309 83.5439 14.1866 82.9958 12.5422C82.5847 11.446 81.7625 10.4867 80.9403 9.66456Z" fill="#382040"/>
<path d="M64.7707 58.7215C63.1263 58.7215 61.893 58.0364 61.482 57.0771C61.3449 57.3512 61.2079 57.4882 61.2079 57.7623C61.2079 58.9956 62.8523 60.0918 64.7707 60.0918C66.6891 60.0918 68.3335 58.9956 68.3335 57.7623C68.3335 57.4882 68.1965 57.3512 68.0594 57.0771C67.6483 58.0364 66.415 58.7215 64.7707 58.7215Z" fill="#E4776D"/>
<path d="M52.164 58.5845C52.164 60.777 50.3826 62.5584 48.0531 62.5584C45.7235 62.5584 43.9421 60.777 43.9421 58.5845C43.9421 56.392 45.7235 54.6106 48.0531 54.6106C50.3826 54.6106 52.164 56.392 52.164 58.5845Z" fill="#F8918B"/>
<path d="M85.5995 58.5845C85.5995 60.777 83.8181 62.5584 81.4886 62.5584C79.2961 62.5584 77.3777 60.777 77.3777 58.5845C77.3777 56.392 79.1591 54.6106 81.4886 54.6106C83.6811 54.6106 85.5995 56.392 85.5995 58.5845Z" fill="#F8918B"/>
<path d="M111.635 100.653C98.8914 95.1716 88.3401 93.2532 80.3923 92.7051C79.022 95.8568 72.5816 98.3233 64.7708 98.3233C56.9601 98.3233 50.5196 95.8568 49.1493 92.7051C41.3386 93.2532 30.7872 95.1716 17.9064 100.653C17.9064 100.653 34.6241 148.477 35.4463 164.098C35.8574 172.32 35.5833 179.582 35.3092 184.927H94.3694C93.9583 179.445 93.6843 172.183 94.2324 164.098C95.0546 148.339 111.635 100.653 111.635 100.653Z" fill="#1EB1FA"/>
<path d="M94.0953 164.098C94.5064 156.15 98.8914 140.118 103.276 126.14C101.769 126.826 100.125 128.607 98.6173 127.785C95.4656 126.277 78.0627 129.703 64.3597 131.074C55.8638 131.896 35.0351 122.715 25.443 123.4C29.965 137.925 35.0351 155.602 35.4462 164.098C35.8573 172.32 35.5833 179.582 35.3092 184.927H94.3694C93.9583 179.582 93.6842 172.32 94.0953 164.098Z" fill="#008CD9"/>
<path d="M63.5381 175.472L27.225 162.317V117.919L63.5381 140.255V175.472Z" fill="white"/>
<path d="M66.0046 175.883L102.592 162.591V117.508L66.0046 140.118V175.883Z" fill="white"/>
<path d="M63.2638 182.46L23.3879 168.072V119.015L63.2638 141.762V182.46Z" fill="#E3E5E5"/>
<path d="M66.0046 182.871L106.566 168.209V118.604L66.0046 141.625V182.871Z" fill="#E3E5E5"/>
<path d="M63.1271 190.271L19.4143 174.512V120.796L63.1271 141.077V190.271Z" fill="white"/>
<path d="M64.7713 199.452L16.2625 182.323V124.633L64.7713 141.762V199.452Z" fill="#FFCC33"/>
<path d="M66.1415 190.819L110.539 174.649V120.385L66.1415 140.803V190.819Z" fill="white"/>
<path d="M64.7714 199.452L113.28 182.323V124.633L64.7714 141.762V199.452Z" fill="#FFCC33"/>
<path d="M78.7485 159.028L105.195 150.669V141.214L78.7485 149.71V159.028Z" fill="white"/>
<path d="M69.8414 196.848C69.8414 199.589 67.6489 200 65.0453 200C62.4417 200 60.2493 199.589 60.2493 196.848V142.721C60.2493 139.981 62.4417 139.57 65.0453 139.57C67.6489 139.57 69.8414 139.981 69.8414 142.721V196.848Z" fill="#F49819"/>
<path d="M27.3615 151.765L16.5361 155.328C14.4806 156.013 12.2882 155.191 11.603 153.41C11.0549 151.628 12.2882 149.71 14.3436 148.888L25.169 145.325C27.2245 144.64 29.417 145.462 30.1021 147.243C30.7873 149.025 29.554 150.943 27.3615 151.765Z" fill="#FBA489"/>
<path d="M31.7464 157.247L17.7693 161.906C15.0287 162.865 12.2881 162.18 11.74 160.398C11.1918 158.617 12.9732 156.424 15.7138 155.602L29.691 150.943C32.4316 149.984 35.1722 150.669 35.7203 152.45C36.2684 154.232 34.487 156.424 31.7464 157.247Z" fill="#FBA489"/>
<path d="M28.4577 165.468L16.9472 169.305C14.6177 169.99 12.4252 169.305 11.74 167.524C11.1919 165.742 12.5622 163.687 14.7547 163.002L26.2652 159.165C28.5948 158.48 30.7873 159.165 31.4724 160.946C32.0205 162.728 30.6502 164.783 28.4577 165.468Z" fill="#FBA489"/>
<path d="M24.8947 173.69L17.0839 176.294C15.5766 176.842 13.7952 175.746 13.2471 173.964C12.6989 172.183 13.3841 170.401 14.8914 169.853L22.7022 167.25C24.2095 166.702 25.9909 167.798 26.539 169.579C27.2242 171.361 26.539 173.142 24.8947 173.69Z" fill="#FBA489"/>
<path d="M102.18 151.765L113.005 155.328C115.061 156.013 117.253 155.191 117.939 153.41C118.487 151.628 117.253 149.71 115.198 148.888L104.373 145.325C102.317 144.64 100.125 145.462 99.4394 147.243C98.8913 149.025 100.125 150.943 102.18 151.765Z" fill="#FBA489"/>
<path d="M97.7949 157.247L111.772 161.906C114.513 162.865 117.253 162.18 117.801 160.398C118.349 158.617 116.568 156.424 113.827 155.602L99.8504 150.943C97.1098 149.984 94.3691 150.669 93.821 152.45C93.2729 154.232 95.0543 156.424 97.7949 157.247Z" fill="#FBA489"/>
<path d="M101.221 165.468L112.731 169.305C115.061 169.99 117.253 169.305 117.939 167.524C118.487 165.742 117.116 163.687 114.924 163.002L103.413 159.165C101.084 158.48 98.8913 159.165 98.2062 160.946C97.521 162.728 98.8913 164.783 101.221 165.468Z" fill="#FBA489"/>
<path d="M104.646 173.69L112.457 176.294C113.964 176.842 115.746 175.746 116.294 173.964C116.842 172.183 116.157 170.401 114.649 169.853L106.839 167.25C105.331 166.702 103.55 167.798 103.002 169.579C102.317 171.361 103.139 173.142 104.646 173.69Z" fill="#FBA489"/>
<path d="M46.1345 43.9223C45.9975 43.9223 45.7234 43.7853 45.5864 43.6482C45.3123 43.3742 45.3123 42.8261 45.5864 42.552C45.5864 42.552 49.9714 38.4411 55.7267 41.7298C56.1378 42.0039 56.2748 42.415 56.0007 42.8261C55.7267 43.2372 55.3156 43.3742 54.9045 43.1001C50.2454 40.3595 46.6827 43.6482 46.6827 43.7853C46.4086 43.7853 46.2716 43.9223 46.1345 43.9223Z" fill="#382040"/>
<path d="M83.5439 43.7852C83.4069 43.7852 83.1329 43.6481 82.9958 43.5111C82.8588 43.3741 79.296 40.2224 74.774 42.8259C74.3629 43.1 73.9518 42.963 73.6777 42.5519C73.4037 42.1408 73.5407 41.7297 73.9518 41.4556C79.5701 38.1669 83.955 42.2778 84.0921 42.2778C84.3661 42.5519 84.3661 43.1 84.0921 43.3741C83.955 43.7852 83.681 43.7852 83.5439 43.7852Z" fill="#382040"/>
</svg>
