<svg width="41" height="40" viewBox="0 0 41 40" fill="none" xmlns="http://www.w3.org/2000/svg">
<circle cx="20.5" cy="20" r="19.5" stroke="#FFD41D"/>
<g clip-path="url(#clip0_251_7068)">
<path d="M26.6668 22.3792C25.9951 22.2347 25.4637 22.5466 24.9932 22.8189C24.5114 23.0996 23.5951 23.8429 23.07 23.6526C20.3811 22.5455 17.8521 20.192 16.7574 17.4924C16.5644 16.956 17.3042 16.0339 17.5828 15.5464C17.8532 15.0744 18.1586 14.538 18.0193 13.8613C17.8934 13.2532 16.2652 11.1814 15.6895 10.6148C15.3098 10.2406 14.9208 10.0348 14.5215 10.0015C13.0202 9.93707 11.3435 11.9402 11.0495 12.4195C10.3127 13.4413 10.3169 14.801 11.0618 16.4497C12.8572 20.8781 19.6475 27.5613 24.0925 29.4241C24.9128 29.8077 25.6629 30 26.3366 30C26.996 30 27.5831 29.816 28.0876 29.4511C28.4684 29.2318 30.5536 27.4719 30.4989 25.9302C30.4659 25.5373 30.2606 25.1444 29.8912 24.7639C29.3289 24.1828 27.2704 22.506 26.6668 22.3792Z" fill="#292929"/>
</g>
<defs>
<clipPath id="clip0_251_7068">
<rect width="24" height="24" fill="white" transform="translate(8.5 8)"/>
</clipPath>
</defs>
</svg>
