<svg width="40" height="40" viewBox="0 0 40 40" fill="none" xmlns="http://www.w3.org/2000/svg">
<circle cx="20" cy="20" r="19.5" stroke="#FFD41D"/>
<path d="M26.1668 22.3792C25.4951 22.2347 24.9637 22.5466 24.4932 22.8189C24.0114 23.0996 23.0951 23.8429 22.57 23.6526C19.8811 22.5455 17.3521 20.192 16.2574 17.4924C16.0644 16.956 16.8042 16.0339 17.0828 15.5464C17.3532 15.0744 17.6586 14.538 17.5193 13.8613C17.3934 13.2532 15.7652 11.1814 15.1895 10.6148C14.8098 10.2406 14.4208 10.0348 14.0215 10.0015C12.5202 9.93707 10.8435 11.9402 10.5495 12.4195C9.81274 13.4413 9.81687 14.801 10.5618 16.4497C12.3572 20.8781 19.1475 27.5613 23.5925 29.4241C24.4128 29.8077 25.1629 30 25.8366 30C26.496 30 27.0831 29.816 27.5876 29.4511C27.9684 29.2318 30.0536 27.4719 29.9989 25.9302C29.9659 25.5373 29.7606 25.1444 29.3912 24.7639C28.8289 24.1828 26.7704 22.506 26.1668 22.3792Z" fill="#292929"/>
</svg>
