<svg width="75" height="75" viewBox="0 0 75 75" fill="none" xmlns="http://www.w3.org/2000/svg">
<path d="M68.0958 4.6875H35.1465C31.3396 4.6875 28.2423 7.78484 28.2423 11.5917V32.7284L22.1243 29.686C21.9177 29.583 21.7077 29.4857 21.496 29.3936C23.2922 27.5185 24.3994 24.9779 24.3994 22.1827C24.3994 16.4291 19.7187 11.7479 13.9652 11.7479C8.21114 11.7479 3.5305 16.4291 3.5305 22.1827C3.5305 25.3092 4.91467 28.1176 7.10049 30.0316C3.07503 32.2964 0 36.7144 0 42.1875V49.2479C0 52.2875 1.97353 54.8744 4.70695 55.794V68.0763C4.70695 69.2894 5.69057 70.2736 6.90422 70.2736H21.0251C22.2387 70.2736 23.2224 69.2894 23.2224 68.0763V43.3886L30.257 46.9053C32.9493 48.2512 36.6011 47.4489 38.2524 44.3848H46.1306L37.7884 67.325C37.3735 68.4654 37.9623 69.7266 39.1027 70.1408C40.4062 70.6152 41.5655 69.7975 41.9186 68.8271L50.8066 44.3848H52.347L61.326 68.8339C61.6671 69.7615 62.8178 70.6266 64.1464 70.1385C65.2851 69.7203 65.8699 68.458 65.451 67.3187L57.0282 44.3848H68.0958C71.8288 44.3848 75 41.3733 75 37.4805V11.5917C75 7.69844 71.8288 4.6875 68.0958 4.6875ZM7.92503 22.1827C7.92503 18.8519 10.6344 16.1425 13.9647 16.1425C17.2955 16.1425 20.0048 18.8519 20.0048 22.1827C20.0048 25.5129 17.2955 28.2223 13.9647 28.2223C10.6344 28.2223 7.92503 25.5129 7.92503 22.1827ZM34.4971 42.0353C34.4913 42.0513 34.4856 42.0679 34.4805 42.0845C34.3306 42.5028 33.9918 42.8553 33.577 43.0258C33.1381 43.2043 32.6443 43.1854 32.2226 42.9749C28.0443 40.8846 22.007 37.8685 22.007 37.8685C20.549 37.1395 18.8278 38.2015 18.8278 39.834V65.8791H9.10149V53.9549C9.10149 52.7418 8.11729 51.7576 6.90422 51.7576C5.52006 51.7576 4.39453 50.6321 4.39453 49.2479V42.1875C4.39453 36.8185 8.76617 32.6174 13.9647 32.6174H15.9061C17.379 32.6174 18.8501 32.963 20.1645 33.6193C20.1645 33.6193 31.0633 39.0392 33.839 40.4217C34.4336 40.7169 34.7162 41.4104 34.4971 42.0353ZM70.6055 37.4805C70.6055 38.1517 70.3451 38.7817 69.8713 39.2555C69.405 39.7224 68.7578 39.9902 68.0958 39.9902H38.7302C38.7262 39.9782 38.7234 39.9662 38.7194 39.9548L44.1725 29.0491C44.7149 27.9636 44.2755 26.6441 43.19 26.1011C42.1051 25.5587 40.785 25.9981 40.242 27.0836L35.5911 36.3848C34.7242 35.9528 33.7166 35.4509 32.6368 34.9142V11.5917C32.6368 10.2081 33.7624 9.08203 35.1465 9.08203H68.0958C68.7578 9.08203 69.405 9.34982 69.8719 9.81789C70.3451 10.2905 70.6055 10.9205 70.6055 11.5917V37.4805Z" fill="white"/>
<path d="M63.3888 14.1014H39.8535C38.6398 14.1014 37.6562 15.085 37.6562 16.2987C37.6562 17.5123 38.6398 18.4959 39.8535 18.4959H63.3888C64.6019 18.4959 65.5861 17.5123 65.5861 16.2987C65.5861 15.085 64.6025 14.1014 63.3888 14.1014Z" fill="white"/>
<path d="M63.3888 22.3389H51.6209C50.4078 22.3389 49.4236 23.3225 49.4236 24.5361C49.4236 25.7498 50.4078 26.7334 51.6209 26.7334H63.3888C64.6019 26.7334 65.5861 25.7498 65.5861 24.5361C65.5861 23.3225 64.6025 22.3389 63.3888 22.3389Z" fill="white"/>
<path d="M63.3888 30.5763H51.6209C50.4078 30.5763 49.4236 31.5599 49.4236 32.7736C49.4236 33.9867 50.4078 34.9709 51.6209 34.9709H63.3888C64.6019 34.9709 65.5861 33.9867 65.5861 32.7736C65.5861 31.5599 64.6025 30.5763 63.3888 30.5763Z" fill="white"/>
</svg>
