<svg width="16" height="16" viewBox="0 0 16 16" fill="none" xmlns="http://www.w3.org/2000/svg">
<ellipse cx="7.71929" cy="4.8521" rx="3.18535" ry="3.18535" stroke="#FFD41D" stroke-width="1.5" stroke-linecap="round" stroke-linejoin="round"/>
<path fill-rule="evenodd" clip-rule="evenodd" d="M2.66667 12.4677C2.66581 12.2438 2.71589 12.0226 2.81312 11.8209C3.11823 11.2106 3.97864 10.8872 4.6926 10.7408C5.20751 10.6309 5.72953 10.5575 6.25477 10.5211C7.22722 10.4357 8.20528 10.4357 9.17773 10.5211C9.70292 10.5579 10.2249 10.6313 10.7399 10.7408C11.4539 10.8872 12.3143 11.1801 12.6194 11.8209C12.8149 12.2321 12.8149 12.7094 12.6194 13.1206C12.3143 13.7614 11.4539 14.0543 10.7399 14.1946C10.2256 14.3091 9.70339 14.3845 9.17773 14.4204C8.38623 14.4875 7.59105 14.4997 6.79787 14.457C6.6148 14.457 6.43783 14.457 6.25477 14.4204C5.73108 14.385 5.21087 14.3095 4.6987 14.1946C3.97864 14.0543 3.12433 13.7614 2.81312 13.1206C2.71639 12.9166 2.66636 12.6935 2.66667 12.4677Z" stroke="#FFD41D" stroke-width="1.5" stroke-linecap="round" stroke-linejoin="round"/>
</svg>
