<svg width="41" height="40" viewBox="0 0 41 40" fill="none" xmlns="http://www.w3.org/2000/svg">
<circle cx="20.5" cy="20" r="19.5" stroke="#FFD41D"/>
<path d="M30.6456 11.1449C30.2856 10.8396 29.7202 10.796 29.1355 11.0307H29.1346C28.5197 11.2774 11.7293 18.4793 11.0458 18.7736C10.9214 18.8168 9.83568 19.2219 9.94752 20.1243C10.0474 20.9379 10.92 21.2748 11.0266 21.3137L15.2952 22.7753C15.5784 23.718 16.6224 27.1961 16.8533 27.9392C16.9973 28.4024 17.232 29.011 17.6434 29.1363C18.0043 29.2755 18.3634 29.1483 18.5957 28.9659L21.2054 26.5452L25.4184 29.8308L25.5187 29.8908C25.8048 30.0176 26.0789 30.0809 26.3405 30.0809C26.5426 30.0809 26.7365 30.043 26.9218 29.9672C27.553 29.708 27.8054 29.1065 27.8318 29.0384L30.9787 12.6814C31.1707 11.8078 30.9038 11.3633 30.6456 11.1449ZM19.0598 23.36L17.6198 27.2L16.1798 22.4L27.2198 14.24L19.0598 23.36Z" fill="#292929"/>
</svg>
