<svg width="40" height="40" viewBox="0 0 40 40" fill="none" xmlns="http://www.w3.org/2000/svg">
<circle cx="20" cy="20" r="19.5" stroke="#FFD41D"/>
<path d="M30.1458 11.1449C29.7858 10.8396 29.2203 10.796 28.6357 11.0307H28.6347C28.0198 11.2774 11.2294 18.4793 10.5459 18.7736C10.4216 18.8168 9.33583 19.2219 9.44767 20.1243C9.54751 20.9379 10.4202 21.2748 10.5267 21.3137L14.7954 22.7753C15.0786 23.718 16.1226 27.1961 16.3534 27.9392C16.4974 28.4024 16.7322 29.011 17.1435 29.1363C17.5045 29.2755 17.8635 29.1483 18.0958 28.9659L20.7056 26.5452L24.9186 29.8308L25.0189 29.8908C25.305 30.0176 25.579 30.0809 25.8406 30.0809C26.0427 30.0809 26.2366 30.043 26.4219 29.9672C27.0531 29.708 27.3056 29.1065 27.332 29.0384L30.4789 12.6814C30.6709 11.8078 30.404 11.3633 30.1458 11.1449ZM18.56 23.36L17.12 27.2L15.68 22.4L26.72 14.24L18.56 23.36Z" fill="white"/>
</svg>
