<svg width="40" height="40" viewBox="0 0 40 40" fill="none" xmlns="http://www.w3.org/2000/svg">
<circle cx="20" cy="20" r="19.5" stroke="#FFD41D"/>
<path d="M27.68 9.92004H12.32C10.9966 9.92004 9.92 10.9967 9.92 12.32V27.68C9.92 29.0034 10.9966 30.08 12.32 30.08H27.68C29.0034 30.08 30.08 29.0034 30.08 27.68V12.32C30.08 10.9967 29.0034 9.92004 27.68 9.92004ZM25.7629 18.7151C25.6539 18.7252 25.5435 18.7319 25.4317 18.7319C24.1726 18.7319 23.0662 18.0844 22.4226 17.1056C22.4226 19.6732 22.4226 22.5944 22.4226 22.6434C22.4226 24.9037 20.5899 26.7364 18.3296 26.7364C16.0693 26.7364 14.2366 24.9037 14.2366 22.6434C14.2366 20.3831 16.0693 18.5504 18.3296 18.5504C18.415 18.5504 18.4986 18.5581 18.5826 18.5634V20.5804C18.4986 20.5703 18.416 20.5549 18.3296 20.5549C17.1757 20.5549 16.2406 21.49 16.2406 22.6439C16.2406 23.7978 17.1757 24.7328 18.3296 24.7328C19.4835 24.7328 20.5026 23.8237 20.5026 22.6698C20.5026 22.6242 20.5227 13.2647 20.5227 13.2647H22.4504C22.6318 14.9884 24.0234 16.3487 25.7629 16.4735V18.7151Z" fill="white"/>
</svg>
