<svg width="41" height="40" viewBox="0 0 41 40" fill="none" xmlns="http://www.w3.org/2000/svg">
<circle cx="20.5" cy="20" r="19.5" stroke="#FFD41D"/>
<path d="M28.1799 9.92004H12.8199C11.4966 9.92004 10.4199 10.9967 10.4199 12.32V27.68C10.4199 29.0034 11.4966 30.08 12.8199 30.08H28.1799C29.5033 30.08 30.5799 29.0034 30.5799 27.68V12.32C30.5799 10.9967 29.5033 9.92004 28.1799 9.92004ZM26.2628 18.7151C26.1538 18.7252 26.0434 18.7319 25.9316 18.7319C24.6726 18.7319 23.5662 18.0844 22.9225 17.1056C22.9225 19.6732 22.9225 22.5944 22.9225 22.6434C22.9225 24.9037 21.0898 26.7364 18.8295 26.7364C16.5692 26.7364 14.7366 24.9037 14.7366 22.6434C14.7366 20.3831 16.5692 18.5504 18.8295 18.5504C18.915 18.5504 18.9985 18.5581 19.0825 18.5634V20.5804C18.9985 20.5703 18.9159 20.5549 18.8295 20.5549C17.6756 20.5549 16.7406 21.49 16.7406 22.6439C16.7406 23.7978 17.6756 24.7328 18.8295 24.7328C19.9834 24.7328 21.0025 23.8237 21.0025 22.6698C21.0025 22.6242 21.0226 13.2647 21.0226 13.2647H22.9503C23.1318 14.9884 24.5233 16.3487 26.2628 16.4735V18.7151Z" fill="#292929"/>
</svg>
