<svg width="40" height="40" viewBox="0 0 40 40" fill="none" xmlns="http://www.w3.org/2000/svg">
<circle cx="20" cy="20" r="19.5" stroke="#FFD41D"/>
<path d="M20.4559 10C15.2424 10 11.0023 14.3498 11 19.6967C10.9994 21.529 11.4992 23.3134 12.4452 24.8574L12.6699 25.2243L11.7149 28.8028L15.2922 27.84L15.6375 28.0501C17.0886 28.9338 18.7521 29.4012 20.4481 29.4018H20.4519C25.6614 29.4018 29.9014 25.0517 29.9038 19.7045C29.9046 17.1131 28.9224 14.6768 27.138 12.8439C25.3535 11.0111 22.9803 10.0009 20.4559 10ZM26.0154 23.866C25.7785 24.5467 24.6435 25.1683 24.0976 25.2522C23.6079 25.3272 22.9887 25.3585 22.3079 25.1368C21.8951 25.0023 21.366 24.8229 20.6879 24.5226C17.8377 23.2599 15.9761 20.3153 15.8341 20.1207C15.692 19.9261 14.6738 18.5399 14.6738 17.1048C14.6738 15.67 15.4079 14.9646 15.6682 14.673C15.9289 14.3811 16.2368 14.3082 16.4261 14.3082C16.6154 14.3082 16.805 14.31 16.9706 14.3183C17.1451 14.3272 17.3793 14.2502 17.6098 14.8188C17.8467 15.4025 18.4149 16.8373 18.486 16.9831C18.557 17.1292 18.6042 17.2994 18.5097 17.494C18.4149 17.6886 18.1001 18.1084 17.7994 18.4911C17.6733 18.6515 17.5089 18.7943 17.6748 19.0862C17.8403 19.3778 18.4109 20.3326 19.2554 21.1056C20.3408 22.0988 21.2564 22.4065 21.5405 22.5526C21.8244 22.6984 21.9902 22.674 22.156 22.4797C22.3216 22.2851 22.8663 21.6284 23.0556 21.3365C23.2449 21.0446 23.4346 21.0934 23.6949 21.1907C23.9555 21.2877 25.3524 21.9932 25.6365 22.139C25.9206 22.2851 26.1099 22.358 26.1809 22.4797C26.2523 22.6014 26.2523 23.1849 26.0154 23.866Z" fill="white"/>
</svg>
